<svg enable-background="new 0 0 69.334 93.328" height="94" viewBox="0 0 69.334 93.328" width="70" xmlns="http://www.w3.org/2000/svg"><path d="m67.662 92.811c-1.833.463-3.574-.283-5.342-.231-.26.013-4.224.488-3.743-.283-2.027 1.079-3.002.154-4.965.206-1.209.039-1.573.501-2.859.334-.598-.077-1.157-.887-1.755-.424-.819 1.619-6.563.27-7.993.283-1.833 0-3.652.296-5.55.27-1.69-.026-3.34-.347-4.9-.321-2.222.039-4.64.308-6.94.373-2.002.051-4.016-.758-5.849-.707-.689.013-1.287.642-2.014.655-.845.013-1.651-.797-2.352-.758-.754.039-1.43.732-2.248.784-.975.064-1.807-.501-2.703-.488-2.313.039-4.848.463-7.278.463 0-.501-.533-4.394.026-4.125-1.04-1.76.312-3.624.195-5.461-.143-2.159-.169-4.215-.156-6.399.273-1.118.546-1.67.819-1.645-1.105-1.118-1.287-3.354-.026-4.857-.546-.681-.845-1.375-.884-2.094h66.621l.013 1.156c-.26 1.208-.533 1.76-.793 1.658 1.17 1.966 1.17 3.122.013 4.896 1.17 1.722 1.17 3.187-.078 4.844 2.547 2.234.234 8.826.741 11.871z" fill="#382d16"/><path d="m68.325 32.073c-.246-1.936.069-3.75.131-5.677.075-2.335-.274-4.597-.122-6.941.277-4.27.083-8.702.035-12.993-.129-.589-.08-1.273-.056-1.873l-1.587-.019c-.661-.953-6.82.146-8.075.092-2.233-.094-6.289-1.072-8.104.739-1.889-1.441-2.955-.381-4.904-.349-2.11.034-2.699-.959-4.948.282-1.492-1.237-4.251-.938-6.085-.856-2.218.1-4.319.024-6.54-.032-2.335-.059-4.581.267-6.912.119-1.89-.12-5.696-.71-7.184.821-1.765-1.212-3.352-1.2-4.863-.014-1.525-1.258-3.78-1.07-4.923.017-.034-.817-3.133-.809-3.513-.812-.061 2.361-.072 4.685.033 7.037.083 1.876-.412 3.799.616 5.53-.658-.307-.727 5.161-.713 5.775.024.991.458 2.044.475 2.947.017.884-.563 1.716-.502 2.674l.801 2.23c.016.965-.784 1.798-.646 2.966.074.626.603 1.122.593 1.79-.015.954-.636 2.208-.728 3.249-.206 2.35-.21 5.313.032 7.649.204 1.968.191 2.758-.021 4.796-.244 2.341.336 4.643.279 6.908-.039 1.532-1.378 7.091.287 7.919.461.585-.352 1.147-.43 1.729-.172 1.273.298 1.643.33 2.842.051 1.934-.883 2.903.213 4.914-.729-.446-.22 4.723-.219 5.075.004.952-.169 1.965-.136 2.949.042 1.253-.025 2.344-.168 3.65 2.114.29 7.753 1.029 9.344-.74 1.689 1.225 3.168 1.23 4.912.067 1.8 1.155 2.969 1.151 4.963-.011-.106.264.459.528 1.683.786 2.135-.008 4.272-.121 6.382-.154 1.796-.028 3.529.609 5.193-.513 1.623 1.275 4.655.832 6.569.725 2.795-.156 5.702.398 8.467.021 6.066-.826 7.843-7.166 8.752-12.226l.01.001.019-.004.056-.046c.003.282 8.506-.432 9.266-.906 1.559-.971 1.631-1.845 1.706-3.404.013-.259-.39-.601-.378-.936.027-.751.709-1.308.703-2.182-.004-.717-.606-1.341-.621-1.965-.022-.941.351-.608.446-1.728.106-1.256-.529-2.075-.544-3.231-.018-1.351.684-2.881.711-4.352.04-2.208-.521-4.565-.044-6.737-.205-.371-.409-1.064-.609-2.073.035-.925.532-1.91.618-2.879.136-1.55-.036-3.102-.112-4.646-.134-2.678.402-5.321.062-8z" fill="#f0c418"/><path d="m10.386 4.381c.2-.484-.05-.903.08-1.368.078-.217-.022-.822-.39-1.14-.419-1.508-2.348-.761-2.792.29-.258.611-.11 1.268-.116 1.915-.005.546-.192 1.399.084 1.885-.158.383-.16.721-.014 1.089-.143.317-.186.775-.018 1.094-.478.913.064 1.911.602 2.556.536.522 1.709.57 2.142-.185.584-.672.517-1.539.504-2.398l-.008-.085c.037-.643.012-1.285.021-1.928.006-.477.158-1.299-.095-1.725zm10.321 0c.2-.484-.05-.903.08-1.368.078-.217-.022-.822-.39-1.14-.419-1.508-2.348-.761-2.792.29-.258.611-.11 1.268-.116 1.915-.005.546-.192 1.398.083 1.885-.157.383-.159.721-.013 1.089-.143.318-.186.775-.018 1.094-.478.913.064 1.911.602 2.556.536.522 1.709.57 2.142-.185.584-.672.517-1.539.504-2.398l-.008-.085c.037-.643.012-1.285.021-1.928.005-.477.158-1.299-.095-1.725zm10.32 0c.2-.484-.05-.903.08-1.368.078-.217-.022-.822-.39-1.14-.419-1.508-2.348-.761-2.792.29-.258.611-.11 1.268-.116 1.915-.005.546-.192 1.398.083 1.885-.157.383-.159.721-.013 1.089-.143.318-.186.775-.018 1.094-.478.913.064 1.911.602 2.556.536.522 1.709.57 2.142-.185.584-.672.517-1.539.504-2.398l-.008-.085c.037-.643.012-1.285.021-1.928.006-.477.158-1.299-.095-1.725zm10.321 0c.2-.484-.05-.903.08-1.368.078-.217-.022-.822-.39-1.14-.419-1.508-2.348-.761-2.792.29-.258.611-.11 1.268-.116 1.915-.005.546-.192 1.398.083 1.885-.157.383-.159.721-.013 1.089-.143.318-.186.775-.018 1.094-.478.913.064 1.911.602 2.556.536.522 1.709.57 2.142-.185.584-.672.517-1.539.504-2.398l-.008-.085c.037-.643.012-1.285.021-1.928.005-.477.158-1.299-.095-1.725zm10.32 0c.2-.484-.05-.903.08-1.368.078-.217-.022-.822-.39-1.14-.419-1.508-2.348-.761-2.792.29-.258.611-.11 1.268-.116 1.915-.005.546-.192 1.398.083 1.885-.157.383-.159.721-.013 1.089-.143.318-.186.775-.018 1.094-.478.913.064 1.911.602 2.556.536.522 1.709.57 2.142-.185.584-.672.517-1.539.504-2.398l-.008-.085c.037-.643.012-1.285.021-1.928.006-.477.158-1.299-.095-1.725zm10.321 0c.2-.484-.05-.903.08-1.368.078-.217-.022-.822-.39-1.14-.419-1.508-2.348-.761-2.792.29-.258.611-.11 1.268-.116 1.915-.005.546-.192 1.398.083 1.885-.157.383-.159.721-.013 1.089-.143.318-.186.775-.018 1.094-.478.913.064 1.911.602 2.556.536.522 1.709.57 2.142-.185.584-.672.517-1.539.504-2.398l-.008-.085c.037-.643.012-1.285.021-1.928.005-.477.158-1.299-.095-1.725zm-49.936 3.772c-.437-1.036-1.948-2.319-3.191-2.003-.427-.093-.837-.027-1.2.182-.402.039-.829.256-1.075.578-.871.412-1.461 1.945-1.412 2.873l.036.002c.082 1.078.655 2.102 1.554 2.72.914.629 2.904 1.095 3.797.127.696-.202 1.434-1.158 1.554-1.834.512-.727.25-1.89-.063-2.645zm-5.996 1.642-.084-.473.041-.423c.74-1.437 1.396-1.51 2.76-2.1.343.091.609.133.975.167.301.201.495.293.873.485.263.531.824.913.926 1.541.012.27.056.535.095.797-.908 3.307-4.819 3.317-5.586.006zm16.292-1.642c-.437-1.036-1.948-2.319-3.191-2.003-.427-.093-.837-.027-1.2.182-.403.039-.829.256-1.075.578-.871.412-1.461 1.946-1.412 2.873l.036.002c.082 1.078.655 2.102 1.554 2.72.914.629 2.904 1.095 3.797.127.696-.202 1.434-1.158 1.554-1.834.512-.727.25-1.89-.063-2.645zm-5.996 1.642-.084-.473.041-.423c.74-1.437 1.396-1.51 2.76-2.1.342.091.608.133.974.167.301.201.495.293.873.485.263.531.824.913.926 1.541.012.27.056.535.095.797-.907 3.307-4.818 3.317-5.585.006zm16.292-1.642c-.437-1.036-1.948-2.319-3.191-2.003-.427-.093-.837-.027-1.2.182-.403.039-.829.256-1.075.578-.871.412-1.461 1.946-1.412 2.873l.036.002c.082 1.078.655 2.102 1.554 2.72.914.629 2.904 1.095 3.797.127.696-.202 1.434-1.158 1.554-1.834.512-.727.25-1.89-.063-2.645zm-5.996 1.642-.084-.473.041-.423c.74-1.437 1.396-1.51 2.76-2.1.342.091.608.133.974.167.301.201.495.293.873.485.263.531.824.913.926 1.541.012.27.056.535.095.797-.907 3.307-4.818 3.317-5.585.006zm16.292-1.642c-.437-1.036-1.948-2.319-3.191-2.003-.427-.093-.837-.027-1.2.182-.403.039-.829.256-1.075.578-.871.412-1.461 1.946-1.412 2.873l.037.003c.083 1.078.655 2.102 1.554 2.72.914.629 2.904 1.095 3.797.127.696-.202 1.434-1.158 1.554-1.834.511-.728.249-1.891-.064-2.646zm-5.996 1.642-.084-.473.041-.423c.74-1.437 1.396-1.51 2.76-2.1.342.091.608.133.974.167.301.201.495.293.873.485.263.531.824.913.926 1.541.012.27.056.535.095.797-.907 3.307-4.818 3.317-5.585.006zm16.292-1.642c-.437-1.036-1.948-2.319-3.191-2.003-.427-.093-.837-.027-1.2.182-.403.039-.829.256-1.075.578-.871.412-1.461 1.946-1.412 2.873l.036.002c.083 1.078.655 2.102 1.554 2.72.914.629 2.904 1.095 3.797.127.696-.202 1.434-1.158 1.554-1.834.512-.727.25-1.89-.063-2.645zm-5.996 1.642-.084-.473.041-.423c.74-1.437 1.396-1.51 2.76-2.1.342.091.608.133.974.167.301.201.495.293.873.485.263.531.824.913.926 1.541.012.27.056.535.095.797-.907 3.307-4.818 3.317-5.585.006zm16.292-1.642c-.437-1.036-1.948-2.319-3.191-2.003-.427-.093-.837-.027-1.2.182-.403.039-.829.256-1.075.578-.871.412-1.461 1.946-1.412 2.873l.036.002c.082 1.078.655 2.102 1.554 2.72.914.629 2.904 1.095 3.797.127.696-.202 1.434-1.158 1.554-1.834.512-.727.25-1.89-.063-2.645zm-5.996 1.642-.084-.473.041-.423c.74-1.437 1.396-1.51 2.76-2.1.342.091.608.133.974.167.301.201.495.293.873.485.263.531.824.913.926 1.541.012.27.056.535.095.797-.907 3.307-4.818 3.317-5.585.006z" fill="#382d16"/><path d="m14.598 23.723c-.321-.816-1.886-2.286-2.906-1.777-.382-.152-.772-.091-1.078.158-.367-.028-.808.174-.972.513-.811.2-.912 1.12-1.23 1.712-.124.29-.149.465-.122.687l.699.02v.027l-.685-.012c.014.909.559 2.084 1.383 2.56.719.589 2.916 1.213 3.537.163.645-.082 1.37-1.041 1.398-1.654.578-.579.216-1.772-.024-2.397zm0 14.489c-.321-.816-1.886-2.286-2.906-1.777-.382-.152-.772-.091-1.078.158-.367-.028-.808.174-.972.513-.811.2-.912 1.12-1.23 1.712-.124.29-.149.465-.122.687l.699.02v.027l-.685-.012c.014.909.559 2.084 1.383 2.56.719.589 2.916 1.213 3.537.163.645-.082 1.37-1.041 1.398-1.654.578-.579.216-1.772-.024-2.397zm0 14.489c-.321-.816-1.886-2.286-2.906-1.777-.382-.152-.772-.091-1.078.158-.367-.028-.808.174-.972.513-.811.2-.912 1.12-1.23 1.712-.124.29-.149.465-.122.687l.699.02v.027l-.684-.011c.014.909.559 2.084 1.383 2.56.719.589 2.916 1.213 3.537.163.645-.082 1.37-1.041 1.398-1.654.577-.58.215-1.774-.025-2.398zm0 14.489c-.321-.816-1.886-2.286-2.906-1.777-.382-.152-.772-.091-1.078.158-.367-.028-.808.174-.972.513-.811.2-.912 1.12-1.23 1.712-.124.29-.149.465-.122.687l.699.02v.027l-.685-.012c.014.909.559 2.084 1.383 2.56.719.589 2.916 1.213 3.537.163.645-.082 1.37-1.041 1.398-1.654.578-.579.216-1.773-.024-2.397zm8.615-41.141c.606.289 1.213.1 1.841.128l1.712.082c.804.042 2.327.408 3.028-.086.603.277 1.127.286 1.762.024.629.258 1.049.261 1.786-.004.945.602 2.285-.082 3.289.087.484.134.988.099 1.449-.099 1.057.493 2.81.088 3.95.118 1.318.034 2.64.025 3.958.036 1.239.011 2.488.055 3.726.03 1.216-.024 2.618.229 3.815-.023l.06-2.574c-1.496-.026-3.017.132-4.518.157l-.137.014c-.954-.11-1.911.008-2.864-.019-.88-.025-2.25-.354-3.019.15-.657-.3-1.105-.074-1.761-.07-.676.004-1.075-.168-1.774.081-.727-.366-1.745-.185-2.532-.153-.823.034-1.64-.029-2.463-.007-.83.022-1.634.034-2.464.013-.616-.016-1.572-.15-2.128.2-.617-.28-1.161-.284-1.753-.024-.504-.251-1.256-.327-1.762-.033-.627-.363-1.571-.292-2.282-.292-.66.001-1.5-.167-2.139-.046l-.055 2.339c.437.127.84.09 1.275-.029zm37.173 11.933c-1.819-.032-3.664.161-5.488.191l-.166.017c-1.207-.141-2.419.026-3.625-.03-1-.046-2.642-.388-3.521.189-.833-.38-1.47-.046-2.303-.085-.774-.036-1.207-.182-1.991.097-.77-.388-1.834-.242-2.671-.21-1.049.041-2.082.001-3.13.011-.978.009-1.933.07-2.912.036-.84-.028-2.185-.241-2.932.228-.749-.341-1.411-.345-2.13-.029-.619-.309-1.521-.401-2.14-.04-.705-.408-1.721-.327-2.518-.346-.869-.02-2.005-.224-2.853-.064l-.066 2.842c.532.154 1.022.107 1.548-.037.754.359 1.465.081 2.237.156.869.084 1.692.089 2.569.184.822.089 2.522.282 3.188-.188.733.336 1.369.347 2.14.029.764.314 1.274.318 2.17-.005 1.134.722 2.791-.098 3.995.106.588.163 1.2.12 1.761-.12 1.231.575 3.04.084 4.359.119 1.669.044 3.328.012 4.996.061 1.571.047 3.207.086 4.778.044 1.491-.04 3.169.281 4.634-.028zm-36.771 17.321c.577-.02 2.43.723 2.916.038.353.324.659.334 1.03.028.368.302.613.306 1.044-.004.316.402 1.407.27 1.807.11l.115-.008c.283.157.578.116.847-.116.14.131.291.193.443.177 1.401-.032 2.783-.022 4.179.003.685.012 1.374.029 2.059.033.62.004 1.776.216 2.349-.026l.035-3.009c-.862-.03-1.771.155-2.641.183l-.08.016c-.51-.118-1.023-.003-1.534-.014-.526-.011-1.525-.332-1.905.167-.447-.408-.573-.077-1.03-.071-.48.006-.544-.267-1.037.084-.482-.486-2.165-.2-2.792-.189-.612.011-2.402-.264-2.812.252-.361-.328-.679-.332-1.025-.028-.279-.278-.746-.369-1.03-.038-.534-.618-1.42.024-1.96-.307-.277-.129-.426-.163-.624-.088l-.032 2.735c.273.158.488.105.745-.036.348.329.546.121.933.108zm32.787-2.489c-.174-.019-.359.023-.533.032l-.048.015c-.338-.118-1.869-.244-2.063.138-.193-.264-1.041-.201-1.239.011-.09-.136-.19-.2-.289-.19-.522.016-2.81-.248-3.072.246-.216-.295-.407-.299-.615-.025-.144-.215-.43-.363-.618-.034-.194-.336-.756-.377-1.095-.257l-.081-.019c-.166-.116-.256-.146-.374-.079l-.019 2.46c.059.052.121.084.182.094.08.005.16-.04.265-.126.164.235 2.12.528 2.307.132.212.291.395.301.618.025.22.271.368.275.626-.004.162.31.85.24 1.084.099l.069-.007c.17.141.346.104.508-.104.084.117.175.174.266.16.655-.022 1.307-.074 1.959-.079.593-.004 1.353.25 1.924.104.364-.065.931.197 1.267-.016l.021-2.707c-.372-.022-.679.194-1.05.131zm-9.013 14.814c-.429-.024-.881.028-1.31.039l-.118.018c-.87-.152-1.8-.028-2.675-.047-.644-.014-1.875-.295-2.395.216-.597-.409-1.081-.127-1.708-.131-.561-.004-.766-.161-1.338.145-.566-.427-1.532-.227-2.182-.197-.731.034-1.454-.038-2.185-.008-.906.037-3.211-.368-3.894.275-.531-.362-1.001-.367-1.511-.031-.422-.316-1.091-.416-1.518-.042-.826-.718-2.056.043-2.89-.339-.409-.143-.628-.18-.92-.097l-.047 3.023c.396.172.717.118 1.098-.04.506.361 1.036.142 1.587.166.474.021.993.068 1.475.107.659.052 2.079.451 2.609-.111.52.358.971.369 1.518.031.542.334.904.338 1.539-.005.741.708 2.02-.094 2.834.113.417.173.851.128 1.249-.128.746.522 2.138.117 2.988.122 1.2.008 2.39.028 3.588.069 1.077.038 2.197.07 3.275.057 1.04-.012 2.465.274 3.46-.041l.052-3.327c-.868-.024-1.707.237-2.581.163z" fill="#fff"/></svg>