<svg xmlns="http://www.w3.org/2000/svg" xmlns:xlink="http://www.w3.org/1999/xlink" width="1280" zoomAndPan="magnify" viewBox="0 0 960 540.000001" height="720" preserveAspectRatio="xMidYMid meet" version="1.0"><defs><g/><clipPath id="e1a48ade9c"><path d="M 64 31 L 906 31 L 906 515 L 64 515 Z M 64 31 " clip-rule="nonzero"/></clipPath><clipPath id="dec355b411"><path d="M 64.539062 112.824219 L 865.15625 31.25 L 906.132812 433.417969 L 105.519531 514.992188 Z M 64.539062 112.824219 " clip-rule="nonzero"/></clipPath><clipPath id="5934f78158"><path d="M 64.539062 112.824219 L 865.15625 31.25 L 906.132812 433.417969 L 105.519531 514.992188 Z M 64.539062 112.824219 " clip-rule="nonzero"/></clipPath><clipPath id="6a22a8d36a"><path d="M 32.265625 87.472656 L 77.929688 87.472656 L 77.929688 133.136719 L 32.265625 133.136719 Z M 32.265625 87.472656 " clip-rule="nonzero"/></clipPath><clipPath id="0b5ed8617b"><path d="M 886.089844 401.796875 L 931.753906 401.796875 L 931.753906 447.460938 L 886.089844 447.460938 Z M 886.089844 401.796875 " clip-rule="nonzero"/></clipPath><clipPath id="56947ba48d"><path d="M 77.90625 490.332031 L 123.570312 490.332031 L 123.570312 535.996094 L 77.90625 535.996094 Z M 77.90625 490.332031 " clip-rule="nonzero"/></clipPath><clipPath id="be1db215c6"><path d="M 840.183594 7.996094 L 885.847656 7.996094 L 885.847656 53.660156 L 840.183594 53.660156 Z M 840.183594 7.996094 " clip-rule="nonzero"/></clipPath><clipPath id="4de413d190"><path d="M 839 295 L 842 295 L 842 298 L 839 298 Z M 839 295 " clip-rule="nonzero"/></clipPath><clipPath id="44a9fea633"><path d="M 814.035156 298.214844 L 840.816406 295.203125 L 843.824219 321.984375 L 817.042969 324.996094 Z M 814.035156 298.214844 " clip-rule="nonzero"/></clipPath><clipPath id="2dd38e420a"><path d="M 814.035156 298.214844 L 840.816406 295.203125 L 843.824219 321.984375 L 817.042969 324.996094 Z M 814.035156 298.214844 " clip-rule="nonzero"/></clipPath><clipPath id="1d298ad983"><path d="M 839 296 L 844 296 L 844 321 L 839 321 Z M 839 296 " clip-rule="nonzero"/></clipPath><clipPath id="bc83b9cba2"><path d="M 814.035156 298.214844 L 840.816406 295.203125 L 843.824219 321.984375 L 817.042969 324.996094 Z M 814.035156 298.214844 " clip-rule="nonzero"/></clipPath><clipPath id="376d413e4f"><path d="M 814.035156 298.214844 L 840.816406 295.203125 L 843.824219 321.984375 L 817.042969 324.996094 Z M 814.035156 298.214844 " clip-rule="nonzero"/></clipPath><clipPath id="ec2914f6a5"><path d="M 815 297 L 842 297 L 842 324 L 815 324 Z M 815 297 " clip-rule="nonzero"/></clipPath><clipPath id="e660539e68"><path d="M 814.035156 298.214844 L 840.816406 295.203125 L 843.824219 321.984375 L 817.042969 324.996094 Z M 814.035156 298.214844 " clip-rule="nonzero"/></clipPath><clipPath id="b842c64780"><path d="M 814.035156 298.214844 L 840.816406 295.203125 L 843.824219 321.984375 L 817.042969 324.996094 Z M 814.035156 298.214844 " clip-rule="nonzero"/></clipPath><clipPath id="8a674afdb6"><path d="M 815 295 L 840 295 L 840 300 L 815 300 Z M 815 295 " clip-rule="nonzero"/></clipPath><clipPath id="4e5bd0d7c9"><path d="M 814.035156 298.214844 L 840.816406 295.203125 L 843.824219 321.984375 L 817.042969 324.996094 Z M 814.035156 298.214844 " clip-rule="nonzero"/></clipPath><clipPath id="6db31e2451"><path d="M 814.035156 298.214844 L 840.816406 295.203125 L 843.824219 321.984375 L 817.042969 324.996094 Z M 814.035156 298.214844 " clip-rule="nonzero"/></clipPath><clipPath id="1bf18f30c6"><path d="M 814 298 L 816 298 L 816 300 L 814 300 Z M 814 298 " clip-rule="nonzero"/></clipPath><clipPath id="b1e3ad1b66"><path d="M 814.035156 298.214844 L 840.816406 295.203125 L 843.824219 321.984375 L 817.042969 324.996094 Z M 814.035156 298.214844 " clip-rule="nonzero"/></clipPath><clipPath id="e5572b60c8"><path d="M 814.035156 298.214844 L 840.816406 295.203125 L 843.824219 321.984375 L 817.042969 324.996094 Z M 814.035156 298.214844 " clip-rule="nonzero"/></clipPath><clipPath id="d6cc62ada0"><path d="M 814 299 L 819 299 L 819 324 L 814 324 Z M 814 299 " clip-rule="nonzero"/></clipPath><clipPath id="84ba4008eb"><path d="M 814.035156 298.214844 L 840.816406 295.203125 L 843.824219 321.984375 L 817.042969 324.996094 Z M 814.035156 298.214844 " clip-rule="nonzero"/></clipPath><clipPath id="79690d04f8"><path d="M 814.035156 298.214844 L 840.816406 295.203125 L 843.824219 321.984375 L 817.042969 324.996094 Z M 814.035156 298.214844 " clip-rule="nonzero"/></clipPath><clipPath id="32689c8336"><path d="M 818 320 L 843 320 L 843 325 L 818 325 Z M 818 320 " clip-rule="nonzero"/></clipPath><clipPath id="21a33d1d4c"><path d="M 814.035156 298.214844 L 840.816406 295.203125 L 843.824219 321.984375 L 817.042969 324.996094 Z M 814.035156 298.214844 " clip-rule="nonzero"/></clipPath><clipPath id="85f5753955"><path d="M 814.035156 298.214844 L 840.816406 295.203125 L 843.824219 321.984375 L 817.042969 324.996094 Z M 814.035156 298.214844 " clip-rule="nonzero"/></clipPath><clipPath id="0b2ac3667d"><path d="M 816 323 L 819 323 L 819 325 L 816 325 Z M 816 323 " clip-rule="nonzero"/></clipPath><clipPath id="11e23c9a3a"><path d="M 814.035156 298.214844 L 840.816406 295.203125 L 843.824219 321.984375 L 817.042969 324.996094 Z M 814.035156 298.214844 " clip-rule="nonzero"/></clipPath><clipPath id="b71e07f830"><path d="M 814.035156 298.214844 L 840.816406 295.203125 L 843.824219 321.984375 L 817.042969 324.996094 Z M 814.035156 298.214844 " clip-rule="nonzero"/></clipPath><clipPath id="d39ceac02c"><path d="M 841 320 L 844 320 L 844 323 L 841 323 Z M 841 320 " clip-rule="nonzero"/></clipPath><clipPath id="99fe07b367"><path d="M 814.035156 298.214844 L 840.816406 295.203125 L 843.824219 321.984375 L 817.042969 324.996094 Z M 814.035156 298.214844 " clip-rule="nonzero"/></clipPath><clipPath id="475a42194f"><path d="M 814.035156 298.214844 L 840.816406 295.203125 L 843.824219 321.984375 L 817.042969 324.996094 Z M 814.035156 298.214844 " clip-rule="nonzero"/></clipPath><clipPath id="ba72cd52fe"><path d="M 55 33 L 908 33 L 908 513 L 55 513 Z M 55 33 " clip-rule="nonzero"/></clipPath><clipPath id="307f7e3d1e"><path d="M 54.789062 115.257812 L 868.886719 33.109375 L 909.023438 430.847656 L 94.921875 513 Z M 54.789062 115.257812 " clip-rule="nonzero"/></clipPath><clipPath id="4bf575f0f4"><path d="M 54.789062 115.257812 L 868.886719 33.109375 L 909.023438 430.847656 L 94.921875 513 Z M 54.789062 115.257812 " clip-rule="nonzero"/></clipPath><clipPath id="9d297e08ca"><path d="M 534 375.34375 L 692.945312 375.34375 L 692.945312 534.800781 L 534 534.800781 Z M 534 375.34375 " clip-rule="nonzero"/></clipPath></defs><g clip-path="url(#e1a48ade9c)"><g clip-path="url(#dec355b411)"><g clip-path="url(#5934f78158)"><path fill="#ffc637" d="M 901.019531 429.457031 L 109.730469 510.082031 L 69.65625 116.785156 L 860.945312 36.160156 Z M 64.785156 112.816406 L 105.761719 514.953125 L 905.886719 433.425781 L 864.914062 31.289062 L 64.785156 112.816406 " fill-opacity="1" fill-rule="nonzero"/></g></g></g><g clip-path="url(#6a22a8d36a)"><path fill="#ffc637" d="M 55.097656 87.472656 C 42.488281 87.472656 32.265625 97.695312 32.265625 110.304688 C 32.265625 122.914062 42.488281 133.136719 55.097656 133.136719 C 67.707031 133.136719 77.929688 122.914062 77.929688 110.304688 C 77.929688 97.695312 67.707031 87.472656 55.097656 87.472656 " fill-opacity="1" fill-rule="nonzero"/></g><g clip-path="url(#0b5ed8617b)"><path fill="#ffc637" d="M 908.921875 401.796875 C 896.308594 401.796875 886.089844 412.019531 886.089844 424.628906 C 886.089844 437.238281 896.308594 447.460938 908.921875 447.460938 C 921.53125 447.460938 931.753906 437.238281 931.753906 424.628906 C 931.753906 412.019531 921.53125 401.796875 908.921875 401.796875 " fill-opacity="1" fill-rule="nonzero"/></g><g clip-path="url(#56947ba48d)"><path fill="#ffc637" d="M 100.738281 490.332031 C 88.128906 490.332031 77.90625 500.554688 77.90625 513.164062 C 77.90625 525.773438 88.128906 535.996094 100.738281 535.996094 C 113.347656 535.996094 123.570312 525.773438 123.570312 513.164062 C 123.570312 500.554688 113.347656 490.332031 100.738281 490.332031 " fill-opacity="1" fill-rule="nonzero"/></g><g clip-path="url(#be1db215c6)"><path fill="#ffc637" d="M 863.015625 7.996094 C 850.40625 7.996094 840.183594 18.21875 840.183594 30.828125 C 840.183594 43.4375 850.40625 53.660156 863.015625 53.660156 C 875.625 53.660156 885.847656 43.4375 885.847656 30.828125 C 885.847656 18.21875 875.625 7.996094 863.015625 7.996094 " fill-opacity="1" fill-rule="nonzero"/></g><g fill="#ffc637" fill-opacity="1"><g transform="translate(140.074881, 406.912734)"><g><path d="M 48.890625 -205.6875 L 55.578125 -141.078125 L 137.109375 -149.515625 L 140.5625 -116.171875 L 59.03125 -107.734375 L 65.859375 -41.828125 L 169.3125 -52.53125 L 172.890625 -17.890625 L 25.9375 -2.6875 L 1.828125 -235.671875 L 148.78125 -250.875 L 152.34375 -216.390625 Z M 48.890625 -205.6875 "/></g></g></g><g fill="#ffc637" fill-opacity="1"><g transform="translate(325.370779, 387.735291)"><g><path d="M 99.6875 -81.65625 C 88.238281 -79.914062 78.671875 -77.914062 70.984375 -75.65625 C 63.296875 -73.40625 57.207031 -70.90625 52.71875 -68.15625 C 48.226562 -65.414062 45.113281 -62.429688 43.375 -59.203125 C 41.644531 -55.984375 40.96875 -52.601562 41.34375 -49.0625 C 42.0625 -42.070312 44.644531 -37.285156 49.09375 -34.703125 C 53.539062 -32.128906 59.097656 -31.191406 65.765625 -31.890625 C 73.921875 -32.734375 80.820312 -34.9375 86.46875 -38.5 C 92.125 -42.070312 97.488281 -47.160156 102.5625 -53.765625 Z M 1.078125 -143.90625 C 18.285156 -163.269531 40.257812 -174.335938 67 -177.109375 C 76.664062 -178.109375 85.472656 -177.421875 93.421875 -175.046875 C 101.378906 -172.671875 108.28125 -168.929688 114.125 -163.828125 C 119.976562 -158.722656 124.679688 -152.394531 128.234375 -144.84375 C 131.785156 -137.289062 134.039062 -128.84375 135 -119.5 L 145.8125 -15.09375 L 127.765625 -13.21875 C 124.003906 -12.832031 121.046875 -13.097656 118.890625 -14.015625 C 116.734375 -14.929688 114.882812 -17.046875 113.34375 -20.359375 L 108.5625 -31.921875 C 104.769531 -27.734375 101.03125 -24.007812 97.34375 -20.75 C 93.664062 -17.488281 89.78125 -14.664062 85.6875 -12.28125 C 81.59375 -9.90625 77.15625 -7.953125 72.375 -6.421875 C 67.59375 -4.898438 62.25 -3.832031 56.34375 -3.21875 C 49.351562 -2.5 42.804688 -2.773438 36.703125 -4.046875 C 30.597656 -5.316406 25.203125 -7.609375 20.515625 -10.921875 C 15.835938 -14.234375 12.023438 -18.554688 9.078125 -23.890625 C 6.140625 -29.234375 4.285156 -35.613281 3.515625 -43.03125 C 3.085938 -47.207031 3.359375 -51.4375 4.328125 -55.71875 C 5.304688 -60.007812 7.179688 -64.195312 9.953125 -68.28125 C 12.734375 -72.363281 16.472656 -76.332031 21.171875 -80.1875 C 25.878906 -84.039062 31.785156 -87.582031 38.890625 -90.8125 C 45.992188 -94.050781 54.351562 -96.957031 63.96875 -99.53125 C 73.582031 -102.101562 84.65625 -104.203125 97.1875 -105.828125 L 96.171875 -115.484375 C 95.035156 -126.554688 91.828125 -134.503906 86.546875 -139.328125 C 81.265625 -144.148438 74.171875 -146.097656 65.265625 -145.171875 C 58.816406 -144.503906 53.546875 -143.203125 49.453125 -141.265625 C 45.367188 -139.328125 41.8125 -137.25 38.78125 -135.03125 C 35.757812 -132.820312 33.007812 -130.828125 30.53125 -129.046875 C 28.050781 -127.265625 25.203125 -126.207031 21.984375 -125.875 C 19.191406 -125.59375 16.753906 -126.070312 14.671875 -127.3125 C 12.585938 -128.5625 10.851562 -130.097656 9.46875 -131.921875 Z M 1.078125 -143.90625 "/></g></g></g><g fill="#ffc637" fill-opacity="1"><g transform="translate(488.914552, 370.809113)"><g><path d="M 106.765625 -145.546875 C 105.859375 -143.722656 104.847656 -142.398438 103.734375 -141.578125 C 102.617188 -140.765625 101.148438 -140.265625 99.328125 -140.078125 C 97.390625 -139.878906 95.265625 -140.203125 92.953125 -141.046875 C 90.648438 -141.890625 87.976562 -142.832031 84.9375 -143.875 C 81.894531 -144.914062 78.460938 -145.78125 74.640625 -146.46875 C 70.828125 -147.15625 66.394531 -147.238281 61.34375 -146.71875 C 53.507812 -145.90625 47.535156 -143.601562 43.421875 -139.8125 C 39.304688 -136.03125 37.53125 -131.453125 38.09375 -126.078125 C 38.457031 -122.523438 39.914062 -119.660156 42.46875 -117.484375 C 45.03125 -115.316406 48.3125 -113.515625 52.3125 -112.078125 C 56.3125 -110.648438 60.800781 -109.457031 65.78125 -108.5 C 70.769531 -107.550781 75.847656 -106.472656 81.015625 -105.265625 C 86.191406 -104.066406 91.3125 -102.613281 96.375 -100.90625 C 101.4375 -99.207031 106.046875 -96.863281 110.203125 -93.875 C 114.367188 -90.894531 117.851562 -87.160156 120.65625 -82.671875 C 123.457031 -78.191406 125.203125 -72.617188 125.890625 -65.953125 C 126.710938 -58.003906 126.050781 -50.523438 123.90625 -43.515625 C 121.757812 -36.503906 118.144531 -30.265625 113.0625 -24.796875 C 107.976562 -19.335938 101.46875 -14.8125 93.53125 -11.21875 C 85.59375 -7.632812 76.257812 -5.285156 65.53125 -4.171875 C 59.832031 -3.585938 54.21875 -3.523438 48.6875 -3.984375 C 43.15625 -4.441406 37.796875 -5.328125 32.609375 -6.640625 C 27.421875 -7.953125 22.578125 -9.617188 18.078125 -11.640625 C 13.585938 -13.660156 9.582031 -15.957031 6.0625 -18.53125 L 13.671875 -34.640625 C 14.671875 -36.585938 15.925781 -38.128906 17.4375 -39.265625 C 18.945312 -40.398438 20.9375 -41.09375 23.40625 -41.34375 C 25.875 -41.601562 28.28125 -41.144531 30.625 -39.96875 C 32.976562 -38.800781 35.6875 -37.5625 38.75 -36.25 C 41.820312 -34.9375 45.382812 -33.785156 49.4375 -32.796875 C 53.5 -31.804688 58.539062 -31.625 64.5625 -32.25 C 69.289062 -32.738281 73.285156 -33.71875 76.546875 -35.1875 C 79.816406 -36.664062 82.457031 -38.429688 84.46875 -40.484375 C 86.488281 -42.546875 87.882812 -44.835938 88.65625 -47.359375 C 89.425781 -49.878906 89.675781 -52.425781 89.40625 -55 C 89.007812 -58.875 87.53125 -61.925781 84.96875 -64.15625 C 82.40625 -66.382812 79.117188 -68.21875 75.109375 -69.65625 C 71.097656 -71.09375 66.570312 -72.28125 61.53125 -73.21875 C 56.5 -74.164062 51.34375 -75.234375 46.0625 -76.421875 C 40.78125 -77.609375 35.578125 -79.101562 30.453125 -80.90625 C 25.335938 -82.707031 20.6875 -85.179688 16.5 -88.328125 C 12.320312 -91.484375 8.8125 -95.519531 5.96875 -100.4375 C 3.132812 -105.363281 1.335938 -111.476562 0.578125 -118.78125 C -0.117188 -125.539062 0.550781 -132.125 2.59375 -138.53125 C 4.644531 -144.9375 8.039062 -150.6875 12.78125 -155.78125 C 17.519531 -160.882812 23.640625 -165.207031 31.140625 -168.75 C 38.648438 -172.289062 47.503906 -174.585938 57.703125 -175.640625 C 69.085938 -176.816406 79.648438 -176.007812 89.390625 -173.21875 C 99.128906 -170.4375 107.429688 -166.304688 114.296875 -160.828125 Z M 106.765625 -145.546875 "/></g></g></g><g fill="#ffc637" fill-opacity="1"><g transform="translate(630.545017, 356.150882)"><g><path d="M 152.71875 -182.890625 L 84.46875 37.171875 C 83.570312 40.085938 82.253906 42.367188 80.515625 44.015625 C 78.785156 45.671875 75.988281 46.695312 72.125 47.09375 L 42.46875 50.171875 L 66.5625 -19.421875 L -16.140625 -165.40625 L 18.828125 -169.03125 C 21.929688 -169.351562 24.445312 -168.851562 26.375 -167.53125 C 28.3125 -166.207031 29.8125 -164.628906 30.875 -162.796875 L 74.875 -80.6875 C 76.351562 -77.925781 77.640625 -75.132812 78.734375 -72.3125 C 79.835938 -69.5 80.925781 -66.625 82 -63.6875 C 82.644531 -66.800781 83.300781 -69.882812 83.96875 -72.9375 C 84.632812 -75.988281 85.410156 -79.023438 86.296875 -82.046875 L 110.609375 -171.046875 C 111.253906 -173.273438 112.5 -175.191406 114.34375 -176.796875 C 116.1875 -178.398438 118.34375 -179.328125 120.8125 -179.578125 Z M 152.71875 -182.890625 "/></g></g></g><g clip-path="url(#4de413d190)"><g clip-path="url(#44a9fea633)"><g clip-path="url(#2dd38e420a)"><path fill="#ffc637" d="M 839.742188 295.324219 L 839.15625 295.390625 L 839.351562 297.15625 L 841.011719 296.96875 L 840.933594 296.273438 C 840.867188 295.683594 840.332031 295.257812 839.742188 295.324219 Z M 839.742188 295.324219 " fill-opacity="1" fill-rule="nonzero"/></g></g></g><g clip-path="url(#1d298ad983)"><g clip-path="url(#bc83b9cba2)"><g clip-path="url(#376d413e4f)"><path fill="#ffc637" d="M 839.351562 297.15625 L 841.011719 296.96875 L 843.652344 320.429688 L 841.992188 320.617188 Z M 839.351562 297.15625 " fill-opacity="1" fill-rule="nonzero"/></g></g></g><g clip-path="url(#ec2914f6a5)"><g clip-path="url(#e660539e68)"><g clip-path="url(#b842c64780)"><path fill="#ffc637" d="M 815.894531 299.792969 L 839.351562 297.15625 L 841.992188 320.617188 L 818.53125 323.253906 Z M 815.894531 299.792969 " fill-opacity="1" fill-rule="nonzero"/></g></g></g><g clip-path="url(#8a674afdb6)"><g clip-path="url(#4e5bd0d7c9)"><g clip-path="url(#6db31e2451)"><path fill="#ffc637" d="M 815.695312 298.027344 L 839.15625 295.390625 L 839.351562 297.15625 L 815.894531 299.792969 Z M 815.695312 298.027344 " fill-opacity="1" fill-rule="nonzero"/></g></g></g><g clip-path="url(#1bf18f30c6)"><g clip-path="url(#b1e3ad1b66)"><g clip-path="url(#e5572b60c8)"><path fill="#ffc637" d="M 815.105469 298.09375 C 814.515625 298.160156 814.085938 298.695312 814.152344 299.285156 L 814.230469 299.980469 L 815.894531 299.792969 L 815.695312 298.027344 Z M 815.105469 298.09375 " fill-opacity="1" fill-rule="nonzero"/></g></g></g><g clip-path="url(#d6cc62ada0)"><g clip-path="url(#84ba4008eb)"><g clip-path="url(#79690d04f8)"><path fill="#ffc637" d="M 814.230469 299.980469 L 815.894531 299.792969 L 818.53125 323.253906 L 816.871094 323.441406 Z M 814.230469 299.980469 " fill-opacity="1" fill-rule="nonzero"/></g></g></g><g clip-path="url(#32689c8336)"><g clip-path="url(#21a33d1d4c)"><g clip-path="url(#85f5753955)"><path fill="#ffc637" d="M 818.53125 323.253906 L 841.992188 320.617188 L 842.164062 322.171875 L 818.703125 324.808594 Z M 818.53125 323.253906 " fill-opacity="1" fill-rule="nonzero"/></g></g></g><g clip-path="url(#0b2ac3667d)"><g clip-path="url(#11e23c9a3a)"><g clip-path="url(#b71e07f830)"><path fill="#ffc637" d="M 816.871094 323.441406 L 816.921875 323.921875 C 816.988281 324.511719 817.527344 324.941406 818.117188 324.875 L 818.703125 324.808594 L 818.53125 323.253906 Z M 816.871094 323.441406 " fill-opacity="1" fill-rule="nonzero"/></g></g></g><g clip-path="url(#d39ceac02c)"><g clip-path="url(#99fe07b367)"><g clip-path="url(#475a42194f)"><path fill="#ffc637" d="M 842.753906 322.105469 C 843.34375 322.039062 843.769531 321.503906 843.707031 320.914062 L 843.652344 320.429688 L 841.992188 320.617188 L 842.164062 322.171875 Z M 842.753906 322.105469 " fill-opacity="1" fill-rule="nonzero"/></g></g></g><g clip-path="url(#ba72cd52fe)"><g clip-path="url(#307f7e3d1e)"><g clip-path="url(#4bf575f0f4)"><path fill="#ffc637" d="M 96.105469 512.878906 L 907.839844 430.96875 L 867.707031 33.226562 L 55.96875 115.140625 Z M 71.425781 127.757812 L 855.082031 48.679688 L 892.386719 418.351562 L 108.730469 497.429688 Z M 71.425781 127.757812 " fill-opacity="1" fill-rule="nonzero"/></g></g></g><g clip-path="url(#9d297e08ca)"><path fill="#ffffff" d="M 688.292969 424.753906 L 543.140625 376.304688 C 542.539062 376.105469 541.917969 375.992188 541.285156 375.964844 C 540.648438 375.941406 540.023438 376 539.402344 376.148438 C 538.785156 376.296875 538.199219 376.527344 537.644531 376.839844 C 537.09375 377.152344 536.589844 377.53125 536.144531 377.984375 C 535.695312 378.433594 535.320312 378.9375 535.011719 379.496094 C 534.703125 380.050781 534.480469 380.640625 534.335938 381.257812 C 534.191406 381.878906 534.136719 382.503906 534.167969 383.140625 C 534.199219 383.773438 534.316406 384.390625 534.519531 384.996094 L 582.902344 530.144531 C 583.117188 530.804688 583.421875 531.417969 583.824219 531.984375 C 584.222656 532.550781 584.699219 533.042969 585.25 533.464844 C 585.796875 533.886719 586.398438 534.21875 587.046875 534.457031 C 587.699219 534.695312 588.371094 534.832031 589.0625 534.867188 C 589.734375 534.867188 590.390625 534.769531 591.035156 534.578125 C 591.675781 534.382812 592.277344 534.101562 592.839844 533.726562 C 593.398438 533.355469 593.890625 532.914062 594.320312 532.398438 C 594.75 531.878906 595.097656 531.3125 595.359375 530.695312 L 623.347656 465.476562 L 688.839844 437.484375 C 689.503906 437.207031 690.109375 436.832031 690.65625 436.363281 C 691.199219 435.894531 691.660156 435.351562 692.035156 434.738281 C 692.410156 434.125 692.679688 433.464844 692.847656 432.765625 C 693.015625 432.066406 693.070312 431.359375 693.015625 430.640625 C 692.953125 429.972656 692.796875 429.328125 692.546875 428.707031 C 692.292969 428.085938 691.957031 427.511719 691.539062 426.988281 C 691.117188 426.464844 690.632812 426.015625 690.082031 425.632812 C 689.527344 425.253906 688.933594 424.960938 688.292969 424.753906 Z M 615.683594 453.976562 C 614.886719 454.324219 614.179688 454.804688 613.566406 455.417969 C 612.949219 456.03125 612.46875 456.738281 612.125 457.535156 L 590.15625 508.726562 L 551.96875 393.824219 L 667.078125 432.214844 Z M 615.683594 453.976562 " fill-opacity="1" fill-rule="nonzero"/></g></svg>