<svg xmlns="http://www.w3.org/2000/svg" xmlns:xlink="http://www.w3.org/1999/xlink" width="300" zoomAndPan="magnify" viewBox="0 0 224.87999 225" height="300" preserveAspectRatio="xMidYMid meet" version="1.0"><defs><g/><clipPath id="228fde0113"><path d="M 10.175781 73.605469 L 74.640625 73.605469 L 74.640625 142.566406 L 10.175781 142.566406 Z M 10.175781 73.605469 " clip-rule="nonzero"/></clipPath><clipPath id="8754b23fd4"><path d="M 42 73.605469 L 74.640625 73.605469 L 74.640625 142.566406 L 42 142.566406 Z M 42 73.605469 " clip-rule="nonzero"/></clipPath><clipPath id="8bcd6de3e7"><path d="M 56.644531 111.550781 L 42.410156 92.292969 L 42.410156 122.191406 L 57.375 142.566406 L 74.625 142.566406 L 74.625 73.605469 L 56.644531 73.605469 Z M 56.644531 111.550781 " clip-rule="nonzero"/></clipPath><linearGradient x1="399.99999" gradientTransform="matrix(0.0866509, 0, 0, 0.086204, 7.749055, 73.605007)" y1="400" x2="771.799971" gradientUnits="userSpaceOnUse" y2="400" id="263d0a3271"><stop stop-opacity="1" stop-color="rgb(33.299255%, 14.498901%, 0%)" offset="0"/><stop stop-opacity="1" stop-color="rgb(33.753967%, 14.953613%, 0.164795%)" offset="0.00390625"/><stop stop-opacity="1" stop-color="rgb(34.208679%, 15.408325%, 0.32959%)" offset="0.0078125"/><stop stop-opacity="1" stop-color="rgb(35.472107%, 16.671753%, 0.788879%)" offset="0.0117188"/><stop stop-opacity="1" stop-color="rgb(36.737061%, 17.936707%, 1.249695%)" offset="0.015625"/><stop stop-opacity="1" stop-color="rgb(37.966919%, 19.160461%, 1.690674%)" offset="0.0195312"/><stop stop-opacity="1" stop-color="rgb(39.196777%, 20.385742%, 2.131653%)" offset="0.0234375"/><stop stop-opacity="1" stop-color="rgb(40.275574%, 21.434021%, 2.49176%)" offset="0.0273437"/><stop stop-opacity="1" stop-color="rgb(41.355896%, 22.483826%, 2.851868%)" offset="0.03125"/><stop stop-opacity="1" stop-color="rgb(42.436218%, 23.532104%, 3.211975%)" offset="0.0351562"/><stop stop-opacity="1" stop-color="rgb(43.516541%, 24.581909%, 3.572083%)" offset="0.0390625"/><stop stop-opacity="1" stop-color="rgb(44.595337%, 25.631714%, 3.930664%)" offset="0.0429688"/><stop stop-opacity="1" stop-color="rgb(45.675659%, 26.681519%, 4.290771%)" offset="0.046875"/><stop stop-opacity="1" stop-color="rgb(46.755981%, 27.729797%, 4.650879%)" offset="0.0507813"/><stop stop-opacity="1" stop-color="rgb(47.836304%, 28.779602%, 5.010986%)" offset="0.0546875"/><stop stop-opacity="1" stop-color="rgb(48.9151%, 29.827881%, 5.371094%)" offset="0.0585938"/><stop stop-opacity="1" stop-color="rgb(49.995422%, 30.877686%, 5.731201%)" offset="0.0625"/><stop stop-opacity="1" stop-color="rgb(51.075745%, 31.925964%, 6.091309%)" offset="0.0664062"/><stop stop-opacity="1" stop-color="rgb(52.156067%, 32.975769%, 6.451416%)" offset="0.0703125"/><stop stop-opacity="1" stop-color="rgb(53.083801%, 33.892822%, 6.764221%)" offset="0.0742187"/><stop stop-opacity="1" stop-color="rgb(54.011536%, 34.811401%, 7.078552%)" offset="0.078125"/><stop stop-opacity="1" stop-color="rgb(54.859924%, 35.65979%, 7.368469%)" offset="0.0820312"/><stop stop-opacity="1" stop-color="rgb(55.708313%, 36.509705%, 7.658386%)" offset="0.0859375"/><stop stop-opacity="1" stop-color="rgb(56.556702%, 37.358093%, 7.946777%)" offset="0.0898437"/><stop stop-opacity="1" stop-color="rgb(57.406616%, 38.206482%, 8.236694%)" offset="0.09375"/><stop stop-opacity="1" stop-color="rgb(58.255005%, 39.054871%, 8.526611%)" offset="0.0976562"/><stop stop-opacity="1" stop-color="rgb(59.103394%, 39.903259%, 8.816528%)" offset="0.101562"/><stop stop-opacity="1" stop-color="rgb(59.951782%, 40.751648%, 9.106445%)" offset="0.105469"/><stop stop-opacity="1" stop-color="rgb(60.800171%, 41.600037%, 9.396362%)" offset="0.109375"/><stop stop-opacity="1" stop-color="rgb(61.64856%, 42.448425%, 9.684753%)" offset="0.113281"/><stop stop-opacity="1" stop-color="rgb(62.496948%, 43.296814%, 9.97467%)" offset="0.117187"/><stop stop-opacity="1" stop-color="rgb(63.345337%, 44.145203%, 10.264587%)" offset="0.121094"/><stop stop-opacity="1" stop-color="rgb(64.195251%, 44.995117%, 10.554504%)" offset="0.125"/><stop stop-opacity="1" stop-color="rgb(65.003967%, 45.799255%, 10.832214%)" offset="0.128906"/><stop stop-opacity="1" stop-color="rgb(65.814209%, 46.603394%, 11.11145%)" offset="0.132812"/><stop stop-opacity="1" stop-color="rgb(66.496277%, 47.259521%, 11.352539%)" offset="0.136719"/><stop stop-opacity="1" stop-color="rgb(67.178345%, 47.917175%, 11.595154%)" offset="0.140625"/><stop stop-opacity="1" stop-color="rgb(67.860413%, 48.574829%, 11.836243%)" offset="0.144531"/><stop stop-opacity="1" stop-color="rgb(68.54248%, 49.232483%, 12.078857%)" offset="0.148438"/><stop stop-opacity="1" stop-color="rgb(69.224548%, 49.888611%, 12.319946%)" offset="0.152344"/><stop stop-opacity="1" stop-color="rgb(69.906616%, 50.546265%, 12.562561%)" offset="0.15625"/><stop stop-opacity="1" stop-color="rgb(70.588684%, 51.203918%, 12.80365%)" offset="0.160156"/><stop stop-opacity="1" stop-color="rgb(71.270752%, 51.861572%, 13.046265%)" offset="0.164062"/><stop stop-opacity="1" stop-color="rgb(71.95282%, 52.5177%, 13.287354%)" offset="0.167969"/><stop stop-opacity="1" stop-color="rgb(72.634888%, 53.175354%, 13.528442%)" offset="0.171875"/><stop stop-opacity="1" stop-color="rgb(73.316956%, 53.831482%, 13.769531%)" offset="0.175781"/><stop stop-opacity="1" stop-color="rgb(73.999023%, 54.489136%, 14.012146%)" offset="0.179688"/><stop stop-opacity="1" stop-color="rgb(74.681091%, 55.14679%, 14.253235%)" offset="0.183594"/><stop stop-opacity="1" stop-color="rgb(75.363159%, 55.804443%, 14.49585%)" offset="0.1875"/><stop stop-opacity="1" stop-color="rgb(76.008606%, 56.430054%, 14.72168%)" offset="0.191406"/><stop stop-opacity="1" stop-color="rgb(76.655579%, 57.055664%, 14.94751%)" offset="0.195312"/><stop stop-opacity="1" stop-color="rgb(77.120972%, 57.521057%, 15.093994%)" offset="0.199219"/><stop stop-opacity="1" stop-color="rgb(77.587891%, 57.987976%, 15.240479%)" offset="0.203125"/><stop stop-opacity="1" stop-color="rgb(78.05481%, 58.454895%, 15.386963%)" offset="0.207031"/><stop stop-opacity="1" stop-color="rgb(78.521729%, 58.921814%, 15.533447%)" offset="0.210937"/><stop stop-opacity="1" stop-color="rgb(78.987122%, 59.387207%, 15.679932%)" offset="0.214844"/><stop stop-opacity="1" stop-color="rgb(79.454041%, 59.854126%, 15.826416%)" offset="0.21875"/><stop stop-opacity="1" stop-color="rgb(79.920959%, 60.321045%, 15.9729%)" offset="0.222656"/><stop stop-opacity="1" stop-color="rgb(80.387878%, 60.787964%, 16.119385%)" offset="0.226562"/><stop stop-opacity="1" stop-color="rgb(80.853271%, 61.253357%, 16.265869%)" offset="0.230469"/><stop stop-opacity="1" stop-color="rgb(81.32019%, 61.720276%, 16.412354%)" offset="0.234375"/><stop stop-opacity="1" stop-color="rgb(81.787109%, 62.187195%, 16.558838%)" offset="0.238281"/><stop stop-opacity="1" stop-color="rgb(82.254028%, 62.654114%, 16.705322%)" offset="0.242187"/><stop stop-opacity="1" stop-color="rgb(82.719421%, 63.119507%, 16.851807%)" offset="0.246094"/><stop stop-opacity="1" stop-color="rgb(83.18634%, 63.586426%, 16.998291%)" offset="0.25"/><stop stop-opacity="1" stop-color="rgb(83.653259%, 64.053345%, 17.144775%)" offset="0.253906"/><stop stop-opacity="1" stop-color="rgb(84.120178%, 64.520264%, 17.29126%)" offset="0.257812"/><stop stop-opacity="1" stop-color="rgb(84.585571%, 64.985657%, 17.437744%)" offset="0.261719"/><stop stop-opacity="1" stop-color="rgb(85.05249%, 65.452576%, 17.584229%)" offset="0.265625"/><stop stop-opacity="1" stop-color="rgb(85.374451%, 65.774536%, 17.698669%)" offset="0.269531"/><stop stop-opacity="1" stop-color="rgb(85.697937%, 66.098022%, 17.814636%)" offset="0.273438"/><stop stop-opacity="1" stop-color="rgb(86.013794%, 66.413879%, 17.927551%)" offset="0.277344"/><stop stop-opacity="1" stop-color="rgb(86.329651%, 66.729736%, 18.040466%)" offset="0.28125"/><stop stop-opacity="1" stop-color="rgb(86.643982%, 67.044067%, 18.153381%)" offset="0.285156"/><stop stop-opacity="1" stop-color="rgb(86.959839%, 67.359924%, 18.266296%)" offset="0.289062"/><stop stop-opacity="1" stop-color="rgb(87.27417%, 67.674255%, 18.379211%)" offset="0.292969"/><stop stop-opacity="1" stop-color="rgb(87.590027%, 67.990112%, 18.492126%)" offset="0.296875"/><stop stop-opacity="1" stop-color="rgb(87.905884%, 68.305969%, 18.605042%)" offset="0.300781"/><stop stop-opacity="1" stop-color="rgb(88.221741%, 68.621826%, 18.717957%)" offset="0.304688"/><stop stop-opacity="1" stop-color="rgb(88.536072%, 68.936157%, 18.830872%)" offset="0.308594"/><stop stop-opacity="1" stop-color="rgb(88.851929%, 69.252014%, 18.943787%)" offset="0.3125"/><stop stop-opacity="1" stop-color="rgb(89.16626%, 69.566345%, 19.056702%)" offset="0.316406"/><stop stop-opacity="1" stop-color="rgb(89.482117%, 69.882202%, 19.169617%)" offset="0.320312"/><stop stop-opacity="1" stop-color="rgb(89.796448%, 70.196533%, 19.282532%)" offset="0.324219"/><stop stop-opacity="1" stop-color="rgb(90.112305%, 70.51239%, 19.395447%)" offset="0.328125"/><stop stop-opacity="1" stop-color="rgb(90.428162%, 70.828247%, 19.508362%)" offset="0.332031"/><stop stop-opacity="1" stop-color="rgb(90.744019%, 71.144104%, 19.621277%)" offset="0.335938"/><stop stop-opacity="1" stop-color="rgb(91.05835%, 71.458435%, 19.734192%)" offset="0.339844"/><stop stop-opacity="1" stop-color="rgb(91.374207%, 71.774292%, 19.847107%)" offset="0.34375"/><stop stop-opacity="1" stop-color="rgb(91.639709%, 72.039795%, 19.943237%)" offset="0.347656"/><stop stop-opacity="1" stop-color="rgb(91.905212%, 72.305298%, 20.039368%)" offset="0.351562"/><stop stop-opacity="1" stop-color="rgb(92.068481%, 72.468567%, 20.098877%)" offset="0.359375"/><stop stop-opacity="1" stop-color="rgb(92.39502%, 72.795105%, 20.220947%)" offset="0.367188"/><stop stop-opacity="1" stop-color="rgb(92.720032%, 73.120117%, 20.341492%)" offset="0.375"/><stop stop-opacity="1" stop-color="rgb(93.04657%, 73.446655%, 20.463562%)" offset="0.382812"/><stop stop-opacity="1" stop-color="rgb(93.373108%, 73.773193%, 20.584106%)" offset="0.390625"/><stop stop-opacity="1" stop-color="rgb(93.699646%, 74.099731%, 20.706177%)" offset="0.398438"/><stop stop-opacity="1" stop-color="rgb(94.024658%, 74.424744%, 20.826721%)" offset="0.40625"/><stop stop-opacity="1" stop-color="rgb(94.351196%, 74.751282%, 20.948792%)" offset="0.414062"/><stop stop-opacity="1" stop-color="rgb(94.677734%, 75.07782%, 21.069336%)" offset="0.421875"/><stop stop-opacity="1" stop-color="rgb(95.004272%, 75.404358%, 21.191406%)" offset="0.429687"/><stop stop-opacity="1" stop-color="rgb(95.329285%, 75.72937%, 21.311951%)" offset="0.4375"/><stop stop-opacity="1" stop-color="rgb(95.655823%, 76.055908%, 21.434021%)" offset="0.445312"/><stop stop-opacity="1" stop-color="rgb(95.968628%, 76.368713%, 21.549988%)" offset="0.453125"/><stop stop-opacity="1" stop-color="rgb(96.264648%, 76.664734%, 21.647644%)" offset="0.46875"/><stop stop-opacity="1" stop-color="rgb(96.556091%, 76.956177%, 21.734619%)" offset="0.484375"/><stop stop-opacity="1" stop-color="rgb(96.846008%, 77.246094%, 21.820068%)" offset="0.5"/><stop stop-opacity="1" stop-color="rgb(97.137451%, 77.537537%, 21.907043%)" offset="0.515625"/><stop stop-opacity="1" stop-color="rgb(97.428894%, 77.828979%, 21.992493%)" offset="0.53125"/><stop stop-opacity="1" stop-color="rgb(97.718811%, 78.118896%, 22.079468%)" offset="0.546875"/><stop stop-opacity="1" stop-color="rgb(98.010254%, 78.410339%, 22.164917%)" offset="0.5625"/><stop stop-opacity="1" stop-color="rgb(98.301697%, 78.701782%, 22.251892%)" offset="0.578125"/><stop stop-opacity="1" stop-color="rgb(98.591614%, 78.991699%, 22.337341%)" offset="0.59375"/><stop stop-opacity="1" stop-color="rgb(98.796082%, 79.196167%, 22.399902%)" offset="0.625"/><stop stop-opacity="1" stop-color="rgb(98.977661%, 79.377747%, 22.465515%)" offset="0.75"/><stop stop-opacity="1" stop-color="rgb(99.226379%, 79.626465%, 22.558594%)" offset="0.875"/><stop stop-opacity="1" stop-color="rgb(99.475098%, 79.875183%, 22.651672%)" offset="1"/></linearGradient></defs><g clip-path="url(#228fde0113)"><path fill="#feea3a" d="M 57.375 142.566406 L 28.070312 102.65625 L 28.070312 142.566406 L 10.191406 142.566406 L 10.191406 73.605469 L 28.589844 73.605469 L 56.644531 111.550781 L 56.644531 73.605469 L 74.625 73.605469 L 74.625 142.566406 Z M 57.375 142.566406 " fill-opacity="1" fill-rule="nonzero"/></g><g clip-path="url(#8754b23fd4)"><g clip-path="url(#8bcd6de3e7)"><path fill="url(#263d0a3271)" d="M 42.410156 73.605469 L 42.410156 142.566406 L 74.625 142.566406 L 74.625 73.605469 Z M 42.410156 73.605469 " fill-rule="nonzero"/></g></g><g fill="#ffc1b2" fill-opacity="0.302"><g transform="translate(81.918578, 142.827462)"><g><path d="M 26.601562 -29.484375 C 25.261719 -31.246094 23.679688 -32.582031 21.921875 -33.53125 C 20.125 -34.445312 18.261719 -34.941406 16.292969 -34.941406 C 14.320312 -34.941406 12.421875 -34.445312 10.625 -33.53125 C 8.832031 -32.582031 7.285156 -31.246094 5.945312 -29.484375 C 4.679688 -27.832031 3.730469 -25.96875 3.097656 -23.925781 C 2.429688 -21.886719 2.109375 -19.703125 2.109375 -17.453125 C 2.109375 -15.199219 2.429688 -13.019531 3.097656 -10.976562 C 3.730469 -8.902344 4.679688 -7.074219 5.945312 -5.453125 C 7.285156 -3.695312 8.832031 -2.320312 10.625 -1.40625 C 12.421875 -0.457031 14.320312 0 16.292969 0 C 18.261719 0 20.125 -0.457031 21.921875 -1.40625 C 23.679688 -2.320312 25.261719 -3.695312 26.601562 -5.453125 C 27.867188 -7.074219 28.816406 -8.902344 29.484375 -10.976562 C 30.117188 -13.019531 30.472656 -15.199219 30.472656 -17.453125 C 30.472656 -19.703125 30.117188 -21.886719 29.484375 -23.925781 C 28.816406 -25.96875 27.867188 -27.832031 26.601562 -29.484375 Z M 16.292969 -6.964844 C 15.304688 -6.964844 14.355469 -7.25 13.511719 -7.8125 C 12.632812 -8.375 11.859375 -9.113281 11.222656 -10.0625 C 10.554688 -11.011719 10.027344 -12.140625 9.640625 -13.40625 C 9.253906 -14.671875 9.078125 -16.007812 9.078125 -17.453125 C 9.078125 -18.859375 9.253906 -20.230469 9.640625 -21.5 C 10.027344 -22.765625 10.554688 -23.855469 11.222656 -24.839844 C 11.859375 -25.792969 12.632812 -26.566406 13.511719 -27.128906 C 14.355469 -27.691406 15.304688 -27.972656 16.292969 -27.972656 C 17.277344 -27.972656 18.191406 -27.691406 19.070312 -27.128906 C 19.914062 -26.566406 20.6875 -25.792969 21.324219 -24.839844 C 21.957031 -23.855469 22.484375 -22.765625 22.871094 -21.5 C 23.257812 -20.230469 23.46875 -18.859375 23.46875 -17.453125 C 23.46875 -16.007812 23.257812 -14.671875 22.871094 -13.40625 C 22.484375 -12.140625 21.957031 -11.011719 21.324219 -10.0625 C 20.6875 -9.113281 19.914062 -8.375 19.070312 -7.8125 C 18.191406 -7.25 17.277344 -6.964844 16.292969 -6.964844 Z M 16.292969 -6.964844 "/></g></g></g><g fill="#ffc1b2" fill-opacity="0.302"><g transform="translate(114.500315, 142.827462)"><g><path d="M 27.550781 -35.855469 L 27.515625 -35.820312 C 26.882812 -35.257812 26.179688 -34.976562 25.367188 -34.976562 L 7.285156 -34.976562 C 6.4375 -34.976562 5.734375 -35.257812 5.101562 -35.820312 L 5.101562 -35.855469 C 4.890625 -35.960938 4.714844 -35.960938 4.503906 -35.855469 C 4.292969 -35.75 4.222656 -35.609375 4.222656 -35.398438 L 4.222656 -27.585938 C 4.222656 -27.339844 4.292969 -27.164062 4.503906 -27.09375 C 4.714844 -26.988281 4.890625 -26.988281 5.101562 -27.128906 C 5.734375 -27.691406 6.4375 -28.007812 7.285156 -28.007812 L 12.140625 -28.007812 C 12.316406 -28.007812 12.492188 -27.9375 12.632812 -27.796875 C 12.773438 -27.65625 12.84375 -27.480469 12.84375 -27.304688 L 12.84375 -3.097656 C 12.84375 -2.25 12.5625 -1.511719 12 -0.914062 L 11.964844 -0.878906 C 11.824219 -0.667969 11.824219 -0.492188 11.929688 -0.28125 C 12 -0.0703125 12.175781 0 12.421875 0 L 20.230469 0 C 20.441406 0 20.582031 -0.0703125 20.6875 -0.28125 C 20.792969 -0.492188 20.792969 -0.667969 20.6875 -0.878906 C 20.089844 -1.511719 19.808594 -2.214844 19.808594 -3.0625 L 19.808594 -27.304688 C 19.808594 -27.480469 19.878906 -27.65625 20.019531 -27.796875 C 20.160156 -27.9375 20.300781 -28.007812 20.511719 -28.007812 L 25.367188 -28.007812 C 26.214844 -28.007812 26.917969 -27.691406 27.515625 -27.128906 L 27.550781 -27.128906 C 27.726562 -26.988281 27.902344 -26.988281 28.113281 -27.09375 C 28.324219 -27.164062 28.429688 -27.339844 28.429688 -27.585938 L 28.429688 -35.398438 C 28.429688 -35.609375 28.324219 -35.75 28.113281 -35.855469 C 27.902344 -35.960938 27.726562 -35.960938 27.550781 -35.855469 Z M 27.550781 -35.855469 "/></g></g></g><g fill="#ffc1b2" fill-opacity="0.302"><g transform="translate(147.152423, 142.827462)"><g><path d="M 25.617188 -35.222656 C 25.015625 -34.65625 24.3125 -34.410156 23.539062 -34.410156 L 4.785156 -34.410156 C 4.539062 -34.410156 4.363281 -34.304688 4.292969 -34.09375 C 4.1875 -33.882812 4.1875 -33.707031 4.328125 -33.53125 L 4.433594 -33.425781 C 4.996094 -32.792969 5.277344 -32.054688 5.277344 -31.210938 L 5.277344 -2.640625 C 5.277344 -2.214844 5.207031 -1.828125 5.066406 -1.441406 C 4.925781 -1.054688 4.714844 -0.703125 4.433594 -0.421875 L 4.328125 -0.316406 C 4.1875 -0.105469 4.1875 0.0703125 4.292969 0.28125 C 4.363281 0.492188 4.539062 0.5625 4.785156 0.5625 L 23.539062 0.5625 C 24.3125 0.5625 25.015625 0.84375 25.617188 1.371094 C 25.792969 1.546875 26.003906 1.582031 26.214844 1.476562 C 26.425781 1.40625 26.566406 1.230469 26.566406 0.949219 L 26.566406 -6.894531 C 26.566406 -7.109375 26.460938 -7.285156 26.25 -7.390625 C 26.039062 -7.460938 25.828125 -7.425781 25.6875 -7.285156 C 25.050781 -6.683594 24.3125 -6.402344 23.46875 -6.402344 L 13.125 -6.402344 C 12.878906 -6.402344 12.667969 -6.472656 12.492188 -6.648438 C 12.316406 -6.789062 12.246094 -7.003906 12.246094 -7.285156 L 12.246094 -12.5625 C 12.246094 -12.808594 12.316406 -13.019531 12.492188 -13.195312 C 12.667969 -13.335938 12.878906 -13.441406 13.125 -13.441406 L 16.21875 -13.441406 C 17.066406 -13.441406 17.804688 -13.125 18.4375 -12.5625 C 18.613281 -12.421875 18.789062 -12.421875 19 -12.527344 C 19.210938 -12.632812 19.316406 -12.808594 19.316406 -13.019531 L 19.316406 -20.828125 C 19.316406 -21.042969 19.210938 -21.183594 19 -21.289062 C 18.789062 -21.394531 18.613281 -21.394531 18.4375 -21.289062 C 17.804688 -20.6875 17.066406 -20.40625 16.21875 -20.40625 L 13.125 -20.40625 C 12.878906 -20.40625 12.667969 -20.476562 12.492188 -20.652344 C 12.316406 -20.792969 12.246094 -21.007812 12.246094 -21.289062 L 12.246094 -26.566406 C 12.246094 -26.8125 12.316406 -27.023438 12.492188 -27.199219 C 12.667969 -27.339844 12.878906 -27.445312 13.125 -27.445312 L 23.46875 -27.445312 C 24.3125 -27.445312 25.050781 -27.128906 25.6875 -26.566406 C 25.828125 -26.390625 26.039062 -26.355469 26.25 -26.460938 C 26.460938 -26.53125 26.566406 -26.707031 26.566406 -26.953125 L 26.566406 -34.832031 C 26.566406 -35.046875 26.425781 -35.222656 26.214844 -35.328125 C 26.003906 -35.398438 25.792969 -35.363281 25.617188 -35.222656 Z M 25.617188 -35.222656 "/></g></g></g><g fill="#ffc1b2" fill-opacity="0.302"><g transform="translate(177.939696, 142.827462)"><g><path d="M 28.921875 -26.320312 L 28.746094 -26.53125 C 28.253906 -27.023438 27.9375 -27.585938 27.726562 -28.21875 C 27.09375 -30.1875 25.792969 -31.808594 23.890625 -33.074219 C 22.835938 -33.742188 21.640625 -34.269531 20.300781 -34.621094 C 18.964844 -34.976562 17.59375 -35.152344 16.113281 -35.152344 C 14.636719 -35.152344 13.195312 -34.941406 11.824219 -34.585938 C 10.449219 -34.234375 9.21875 -33.707031 8.128906 -33.039062 C 6.648438 -32.125 5.558594 -31.035156 4.785156 -29.730469 C 4.011719 -28.429688 3.660156 -27.023438 3.660156 -25.472656 C 3.660156 -22.519531 5.03125 -19.984375 7.847656 -17.910156 C 8.832031 -17.136719 9.886719 -16.503906 11.046875 -15.9375 C 12.210938 -15.375 13.40625 -14.8125 14.601562 -14.320312 C 15.304688 -13.96875 16.078125 -13.617188 16.855469 -13.265625 C 17.628906 -12.914062 18.332031 -12.527344 18.964844 -12.175781 C 19.597656 -11.789062 20.125 -11.398438 20.546875 -11.011719 C 20.972656 -10.589844 21.183594 -10.203125 21.183594 -9.816406 C 21.183594 -9.324219 21.007812 -8.867188 20.652344 -8.515625 C 20.300781 -8.164062 19.84375 -7.847656 19.316406 -7.636719 C 18.789062 -7.425781 18.226562 -7.25 17.59375 -7.144531 C 16.960938 -7.003906 16.398438 -6.964844 15.832031 -6.964844 C 15.128906 -6.964844 14.425781 -7.039062 13.652344 -7.214844 C 12.878906 -7.355469 12.210938 -7.636719 11.683594 -8.023438 C 11.539062 -8.128906 11.433594 -8.269531 11.433594 -8.445312 C 11.398438 -8.621094 11.433594 -8.761719 11.574219 -8.902344 L 11.609375 -8.9375 C 11.71875 -9.113281 11.71875 -9.289062 11.648438 -9.5 C 11.539062 -9.710938 11.363281 -9.816406 11.152344 -9.816406 L 3.378906 -9.816406 C 3.132812 -9.816406 2.957031 -9.710938 2.886719 -9.5 C 2.78125 -9.289062 2.78125 -9.113281 2.921875 -8.9375 L 3.0625 -8.796875 C 3.554688 -8.234375 3.871094 -7.636719 4.082031 -7.039062 C 4.714844 -4.996094 5.980469 -3.378906 7.953125 -2.144531 C 9.007812 -1.441406 10.238281 -0.914062 11.574219 -0.5625 C 12.914062 -0.175781 14.355469 0 15.832031 0 C 17.59375 0 19.246094 -0.246094 20.757812 -0.738281 C 22.273438 -1.230469 23.574219 -1.898438 24.664062 -2.78125 C 25.757812 -3.625 26.601562 -4.679688 27.234375 -5.875 C 27.832031 -7.074219 28.148438 -8.375 28.148438 -9.816406 C 28.148438 -11.328125 27.796875 -12.667969 27.128906 -13.792969 C 26.460938 -14.917969 25.617188 -15.902344 24.558594 -16.75 C 23.503906 -17.59375 22.378906 -18.296875 21.113281 -18.929688 C 19.84375 -19.5625 18.613281 -20.125 17.417969 -20.6875 C 16.609375 -21.042969 15.796875 -21.394531 14.988281 -21.78125 C 14.179688 -22.132812 13.441406 -22.519531 12.808594 -22.941406 C 12.175781 -23.328125 11.648438 -23.75 11.222656 -24.171875 C 10.800781 -24.59375 10.625 -25.015625 10.625 -25.472656 C 10.625 -25.863281 10.765625 -26.214844 11.117188 -26.566406 C 11.433594 -26.917969 11.859375 -27.199219 12.386719 -27.445312 C 12.878906 -27.65625 13.476562 -27.832031 14.144531 -27.972656 C 14.777344 -28.113281 15.445312 -28.183594 16.113281 -28.183594 C 16.890625 -28.183594 17.664062 -28.078125 18.367188 -27.9375 C 19.070312 -27.761719 19.632812 -27.515625 20.125 -27.199219 C 20.265625 -27.09375 20.371094 -26.953125 20.371094 -26.777344 C 20.371094 -26.601562 20.335938 -26.460938 20.230469 -26.355469 L 20.230469 -26.320312 C 20.089844 -26.109375 20.089844 -25.933594 20.195312 -25.757812 C 20.265625 -25.542969 20.441406 -25.472656 20.6875 -25.472656 L 28.464844 -25.472656 C 28.675781 -25.472656 28.851562 -25.542969 28.957031 -25.757812 C 29.027344 -25.933594 29.027344 -26.109375 28.921875 -26.320312 Z M 28.921875 -26.320312 "/></g></g></g><g fill="#ffc1b2" fill-opacity="0.302"><g transform="translate(209.782542, 142.827462)"><g><path d="M 4.222656 0.527344 L 11.011719 0.527344 L 11.011719 -6.050781 L 4.222656 -6.050781 Z M 4.222656 0.527344 "/></g></g></g><g fill="#ffc1b2" fill-opacity="0.502"><g transform="translate(82.849811, 143.222752)"><g><path d="M 26.601562 -29.484375 C 25.261719 -31.246094 23.679688 -32.582031 21.921875 -33.53125 C 20.125 -34.445312 18.261719 -34.941406 16.292969 -34.941406 C 14.320312 -34.941406 12.421875 -34.445312 10.625 -33.53125 C 8.832031 -32.582031 7.285156 -31.246094 5.945312 -29.484375 C 4.679688 -27.832031 3.730469 -25.96875 3.097656 -23.925781 C 2.429688 -21.886719 2.109375 -19.703125 2.109375 -17.453125 C 2.109375 -15.199219 2.429688 -13.019531 3.097656 -10.976562 C 3.730469 -8.902344 4.679688 -7.074219 5.945312 -5.453125 C 7.285156 -3.695312 8.832031 -2.320312 10.625 -1.40625 C 12.421875 -0.457031 14.320312 0 16.292969 0 C 18.261719 0 20.125 -0.457031 21.921875 -1.40625 C 23.679688 -2.320312 25.261719 -3.695312 26.601562 -5.453125 C 27.867188 -7.074219 28.816406 -8.902344 29.484375 -10.976562 C 30.117188 -13.019531 30.472656 -15.199219 30.472656 -17.453125 C 30.472656 -19.703125 30.117188 -21.886719 29.484375 -23.925781 C 28.816406 -25.96875 27.867188 -27.832031 26.601562 -29.484375 Z M 16.292969 -6.964844 C 15.304688 -6.964844 14.355469 -7.25 13.511719 -7.8125 C 12.632812 -8.375 11.859375 -9.113281 11.222656 -10.0625 C 10.554688 -11.011719 10.027344 -12.140625 9.640625 -13.40625 C 9.253906 -14.671875 9.078125 -16.007812 9.078125 -17.453125 C 9.078125 -18.859375 9.253906 -20.230469 9.640625 -21.5 C 10.027344 -22.765625 10.554688 -23.855469 11.222656 -24.839844 C 11.859375 -25.792969 12.632812 -26.566406 13.511719 -27.128906 C 14.355469 -27.691406 15.304688 -27.972656 16.292969 -27.972656 C 17.277344 -27.972656 18.191406 -27.691406 19.070312 -27.128906 C 19.914062 -26.566406 20.6875 -25.792969 21.324219 -24.839844 C 21.957031 -23.855469 22.484375 -22.765625 22.871094 -21.5 C 23.257812 -20.230469 23.46875 -18.859375 23.46875 -17.453125 C 23.46875 -16.007812 23.257812 -14.671875 22.871094 -13.40625 C 22.484375 -12.140625 21.957031 -11.011719 21.324219 -10.0625 C 20.6875 -9.113281 19.914062 -8.375 19.070312 -7.8125 C 18.191406 -7.25 17.277344 -6.964844 16.292969 -6.964844 Z M 16.292969 -6.964844 "/></g></g></g><g fill="#ffc1b2" fill-opacity="0.502"><g transform="translate(115.431549, 143.222752)"><g><path d="M 27.550781 -35.855469 L 27.515625 -35.820312 C 26.882812 -35.257812 26.179688 -34.976562 25.367188 -34.976562 L 7.285156 -34.976562 C 6.4375 -34.976562 5.734375 -35.257812 5.101562 -35.820312 L 5.101562 -35.855469 C 4.890625 -35.960938 4.714844 -35.960938 4.503906 -35.855469 C 4.292969 -35.75 4.222656 -35.609375 4.222656 -35.398438 L 4.222656 -27.585938 C 4.222656 -27.339844 4.292969 -27.164062 4.503906 -27.09375 C 4.714844 -26.988281 4.890625 -26.988281 5.101562 -27.128906 C 5.734375 -27.691406 6.4375 -28.007812 7.285156 -28.007812 L 12.140625 -28.007812 C 12.316406 -28.007812 12.492188 -27.9375 12.632812 -27.796875 C 12.773438 -27.65625 12.84375 -27.480469 12.84375 -27.304688 L 12.84375 -3.097656 C 12.84375 -2.25 12.5625 -1.511719 12 -0.914062 L 11.964844 -0.878906 C 11.824219 -0.667969 11.824219 -0.492188 11.929688 -0.28125 C 12 -0.0703125 12.175781 0 12.421875 0 L 20.230469 0 C 20.441406 0 20.582031 -0.0703125 20.6875 -0.28125 C 20.792969 -0.492188 20.792969 -0.667969 20.6875 -0.878906 C 20.089844 -1.511719 19.808594 -2.214844 19.808594 -3.0625 L 19.808594 -27.304688 C 19.808594 -27.480469 19.878906 -27.65625 20.019531 -27.796875 C 20.160156 -27.9375 20.300781 -28.007812 20.511719 -28.007812 L 25.367188 -28.007812 C 26.214844 -28.007812 26.917969 -27.691406 27.515625 -27.128906 L 27.550781 -27.128906 C 27.726562 -26.988281 27.902344 -26.988281 28.113281 -27.09375 C 28.324219 -27.164062 28.429688 -27.339844 28.429688 -27.585938 L 28.429688 -35.398438 C 28.429688 -35.609375 28.324219 -35.75 28.113281 -35.855469 C 27.902344 -35.960938 27.726562 -35.960938 27.550781 -35.855469 Z M 27.550781 -35.855469 "/></g></g></g><g fill="#ffc1b2" fill-opacity="0.502"><g transform="translate(148.083656, 143.222752)"><g><path d="M 25.617188 -35.222656 C 25.015625 -34.65625 24.3125 -34.410156 23.539062 -34.410156 L 4.785156 -34.410156 C 4.539062 -34.410156 4.363281 -34.304688 4.292969 -34.09375 C 4.1875 -33.882812 4.1875 -33.707031 4.328125 -33.53125 L 4.433594 -33.425781 C 4.996094 -32.792969 5.277344 -32.054688 5.277344 -31.210938 L 5.277344 -2.640625 C 5.277344 -2.214844 5.207031 -1.828125 5.066406 -1.441406 C 4.925781 -1.054688 4.714844 -0.703125 4.433594 -0.421875 L 4.328125 -0.316406 C 4.1875 -0.105469 4.1875 0.0703125 4.292969 0.28125 C 4.363281 0.492188 4.539062 0.5625 4.785156 0.5625 L 23.539062 0.5625 C 24.3125 0.5625 25.015625 0.84375 25.617188 1.371094 C 25.792969 1.546875 26.003906 1.582031 26.214844 1.476562 C 26.425781 1.40625 26.566406 1.230469 26.566406 0.949219 L 26.566406 -6.894531 C 26.566406 -7.109375 26.460938 -7.285156 26.25 -7.390625 C 26.039062 -7.460938 25.828125 -7.425781 25.6875 -7.285156 C 25.050781 -6.683594 24.3125 -6.402344 23.46875 -6.402344 L 13.125 -6.402344 C 12.878906 -6.402344 12.667969 -6.472656 12.492188 -6.648438 C 12.316406 -6.789062 12.246094 -7.003906 12.246094 -7.285156 L 12.246094 -12.5625 C 12.246094 -12.808594 12.316406 -13.019531 12.492188 -13.195312 C 12.667969 -13.335938 12.878906 -13.441406 13.125 -13.441406 L 16.21875 -13.441406 C 17.066406 -13.441406 17.804688 -13.125 18.4375 -12.5625 C 18.613281 -12.421875 18.789062 -12.421875 19 -12.527344 C 19.210938 -12.632812 19.316406 -12.808594 19.316406 -13.019531 L 19.316406 -20.828125 C 19.316406 -21.042969 19.210938 -21.183594 19 -21.289062 C 18.789062 -21.394531 18.613281 -21.394531 18.4375 -21.289062 C 17.804688 -20.6875 17.066406 -20.40625 16.21875 -20.40625 L 13.125 -20.40625 C 12.878906 -20.40625 12.667969 -20.476562 12.492188 -20.652344 C 12.316406 -20.792969 12.246094 -21.007812 12.246094 -21.289062 L 12.246094 -26.566406 C 12.246094 -26.8125 12.316406 -27.023438 12.492188 -27.199219 C 12.667969 -27.339844 12.878906 -27.445312 13.125 -27.445312 L 23.46875 -27.445312 C 24.3125 -27.445312 25.050781 -27.128906 25.6875 -26.566406 C 25.828125 -26.390625 26.039062 -26.355469 26.25 -26.460938 C 26.460938 -26.53125 26.566406 -26.707031 26.566406 -26.953125 L 26.566406 -34.832031 C 26.566406 -35.046875 26.425781 -35.222656 26.214844 -35.328125 C 26.003906 -35.398438 25.792969 -35.363281 25.617188 -35.222656 Z M 25.617188 -35.222656 "/></g></g></g><g fill="#ffc1b2" fill-opacity="0.502"><g transform="translate(178.870929, 143.222752)"><g><path d="M 28.921875 -26.320312 L 28.746094 -26.53125 C 28.253906 -27.023438 27.9375 -27.585938 27.726562 -28.21875 C 27.09375 -30.1875 25.792969 -31.808594 23.890625 -33.074219 C 22.835938 -33.742188 21.640625 -34.269531 20.300781 -34.621094 C 18.964844 -34.976562 17.59375 -35.152344 16.113281 -35.152344 C 14.636719 -35.152344 13.195312 -34.941406 11.824219 -34.585938 C 10.449219 -34.234375 9.21875 -33.707031 8.128906 -33.039062 C 6.648438 -32.125 5.558594 -31.035156 4.785156 -29.730469 C 4.011719 -28.429688 3.660156 -27.023438 3.660156 -25.472656 C 3.660156 -22.519531 5.03125 -19.984375 7.847656 -17.910156 C 8.832031 -17.136719 9.886719 -16.503906 11.046875 -15.9375 C 12.210938 -15.375 13.40625 -14.8125 14.601562 -14.320312 C 15.304688 -13.96875 16.078125 -13.617188 16.855469 -13.265625 C 17.628906 -12.914062 18.332031 -12.527344 18.964844 -12.175781 C 19.597656 -11.789062 20.125 -11.398438 20.546875 -11.011719 C 20.972656 -10.589844 21.183594 -10.203125 21.183594 -9.816406 C 21.183594 -9.324219 21.007812 -8.867188 20.652344 -8.515625 C 20.300781 -8.164062 19.84375 -7.847656 19.316406 -7.636719 C 18.789062 -7.425781 18.226562 -7.25 17.59375 -7.144531 C 16.960938 -7.003906 16.398438 -6.964844 15.832031 -6.964844 C 15.128906 -6.964844 14.425781 -7.039062 13.652344 -7.214844 C 12.878906 -7.355469 12.210938 -7.636719 11.683594 -8.023438 C 11.539062 -8.128906 11.433594 -8.269531 11.433594 -8.445312 C 11.398438 -8.621094 11.433594 -8.761719 11.574219 -8.902344 L 11.609375 -8.9375 C 11.71875 -9.113281 11.71875 -9.289062 11.648438 -9.5 C 11.539062 -9.710938 11.363281 -9.816406 11.152344 -9.816406 L 3.378906 -9.816406 C 3.132812 -9.816406 2.957031 -9.710938 2.886719 -9.5 C 2.78125 -9.289062 2.78125 -9.113281 2.921875 -8.9375 L 3.0625 -8.796875 C 3.554688 -8.234375 3.871094 -7.636719 4.082031 -7.039062 C 4.714844 -4.996094 5.980469 -3.378906 7.953125 -2.144531 C 9.007812 -1.441406 10.238281 -0.914062 11.574219 -0.5625 C 12.914062 -0.175781 14.355469 0 15.832031 0 C 17.59375 0 19.246094 -0.246094 20.757812 -0.738281 C 22.273438 -1.230469 23.574219 -1.898438 24.664062 -2.78125 C 25.757812 -3.625 26.601562 -4.679688 27.234375 -5.875 C 27.832031 -7.074219 28.148438 -8.375 28.148438 -9.816406 C 28.148438 -11.328125 27.796875 -12.667969 27.128906 -13.792969 C 26.460938 -14.917969 25.617188 -15.902344 24.558594 -16.75 C 23.503906 -17.59375 22.378906 -18.296875 21.113281 -18.929688 C 19.84375 -19.5625 18.613281 -20.125 17.417969 -20.6875 C 16.609375 -21.042969 15.796875 -21.394531 14.988281 -21.78125 C 14.179688 -22.132812 13.441406 -22.519531 12.808594 -22.941406 C 12.175781 -23.328125 11.648438 -23.75 11.222656 -24.171875 C 10.800781 -24.59375 10.625 -25.015625 10.625 -25.472656 C 10.625 -25.863281 10.765625 -26.214844 11.117188 -26.566406 C 11.433594 -26.917969 11.859375 -27.199219 12.386719 -27.445312 C 12.878906 -27.65625 13.476562 -27.832031 14.144531 -27.972656 C 14.777344 -28.113281 15.445312 -28.183594 16.113281 -28.183594 C 16.890625 -28.183594 17.664062 -28.078125 18.367188 -27.9375 C 19.070312 -27.761719 19.632812 -27.515625 20.125 -27.199219 C 20.265625 -27.09375 20.371094 -26.953125 20.371094 -26.777344 C 20.371094 -26.601562 20.335938 -26.460938 20.230469 -26.355469 L 20.230469 -26.320312 C 20.089844 -26.109375 20.089844 -25.933594 20.195312 -25.757812 C 20.265625 -25.542969 20.441406 -25.472656 20.6875 -25.472656 L 28.464844 -25.472656 C 28.675781 -25.472656 28.851562 -25.542969 28.957031 -25.757812 C 29.027344 -25.933594 29.027344 -26.109375 28.921875 -26.320312 Z M 28.921875 -26.320312 "/></g></g></g><g fill="#ffc1b2" fill-opacity="0.502"><g transform="translate(210.713775, 143.222752)"><g><path d="M 4.222656 0.527344 L 11.011719 0.527344 L 11.011719 -6.050781 L 4.222656 -6.050781 Z M 4.222656 0.527344 "/></g></g></g><g fill="#fffaef" fill-opacity="1"><g transform="translate(83.781042, 143.618032)"><g><path d="M 26.601562 -29.484375 C 25.261719 -31.246094 23.679688 -32.582031 21.921875 -33.53125 C 20.125 -34.445312 18.261719 -34.941406 16.292969 -34.941406 C 14.320312 -34.941406 12.421875 -34.445312 10.625 -33.53125 C 8.832031 -32.582031 7.285156 -31.246094 5.945312 -29.484375 C 4.679688 -27.832031 3.730469 -25.96875 3.097656 -23.925781 C 2.429688 -21.886719 2.109375 -19.703125 2.109375 -17.453125 C 2.109375 -15.199219 2.429688 -13.019531 3.097656 -10.976562 C 3.730469 -8.902344 4.679688 -7.074219 5.945312 -5.453125 C 7.285156 -3.695312 8.832031 -2.320312 10.625 -1.40625 C 12.421875 -0.457031 14.320312 0 16.292969 0 C 18.261719 0 20.125 -0.457031 21.921875 -1.40625 C 23.679688 -2.320312 25.261719 -3.695312 26.601562 -5.453125 C 27.867188 -7.074219 28.816406 -8.902344 29.484375 -10.976562 C 30.117188 -13.019531 30.472656 -15.199219 30.472656 -17.453125 C 30.472656 -19.703125 30.117188 -21.886719 29.484375 -23.925781 C 28.816406 -25.96875 27.867188 -27.832031 26.601562 -29.484375 Z M 16.292969 -6.964844 C 15.304688 -6.964844 14.355469 -7.25 13.511719 -7.8125 C 12.632812 -8.375 11.859375 -9.113281 11.222656 -10.0625 C 10.554688 -11.011719 10.027344 -12.140625 9.640625 -13.40625 C 9.253906 -14.671875 9.078125 -16.007812 9.078125 -17.453125 C 9.078125 -18.859375 9.253906 -20.230469 9.640625 -21.5 C 10.027344 -22.765625 10.554688 -23.855469 11.222656 -24.839844 C 11.859375 -25.792969 12.632812 -26.566406 13.511719 -27.128906 C 14.355469 -27.691406 15.304688 -27.972656 16.292969 -27.972656 C 17.277344 -27.972656 18.191406 -27.691406 19.070312 -27.128906 C 19.914062 -26.566406 20.6875 -25.792969 21.324219 -24.839844 C 21.957031 -23.855469 22.484375 -22.765625 22.871094 -21.5 C 23.257812 -20.230469 23.46875 -18.859375 23.46875 -17.453125 C 23.46875 -16.007812 23.257812 -14.671875 22.871094 -13.40625 C 22.484375 -12.140625 21.957031 -11.011719 21.324219 -10.0625 C 20.6875 -9.113281 19.914062 -8.375 19.070312 -7.8125 C 18.191406 -7.25 17.277344 -6.964844 16.292969 -6.964844 Z M 16.292969 -6.964844 "/></g></g></g><g fill="#fffaef" fill-opacity="1"><g transform="translate(116.36278, 143.618032)"><g><path d="M 27.550781 -35.855469 L 27.515625 -35.820312 C 26.882812 -35.257812 26.179688 -34.976562 25.367188 -34.976562 L 7.285156 -34.976562 C 6.4375 -34.976562 5.734375 -35.257812 5.101562 -35.820312 L 5.101562 -35.855469 C 4.890625 -35.960938 4.714844 -35.960938 4.503906 -35.855469 C 4.292969 -35.75 4.222656 -35.609375 4.222656 -35.398438 L 4.222656 -27.585938 C 4.222656 -27.339844 4.292969 -27.164062 4.503906 -27.09375 C 4.714844 -26.988281 4.890625 -26.988281 5.101562 -27.128906 C 5.734375 -27.691406 6.4375 -28.007812 7.285156 -28.007812 L 12.140625 -28.007812 C 12.316406 -28.007812 12.492188 -27.9375 12.632812 -27.796875 C 12.773438 -27.65625 12.84375 -27.480469 12.84375 -27.304688 L 12.84375 -3.097656 C 12.84375 -2.25 12.5625 -1.511719 12 -0.914062 L 11.964844 -0.878906 C 11.824219 -0.667969 11.824219 -0.492188 11.929688 -0.28125 C 12 -0.0703125 12.175781 0 12.421875 0 L 20.230469 0 C 20.441406 0 20.582031 -0.0703125 20.6875 -0.28125 C 20.792969 -0.492188 20.792969 -0.667969 20.6875 -0.878906 C 20.089844 -1.511719 19.808594 -2.214844 19.808594 -3.0625 L 19.808594 -27.304688 C 19.808594 -27.480469 19.878906 -27.65625 20.019531 -27.796875 C 20.160156 -27.9375 20.300781 -28.007812 20.511719 -28.007812 L 25.367188 -28.007812 C 26.214844 -28.007812 26.917969 -27.691406 27.515625 -27.128906 L 27.550781 -27.128906 C 27.726562 -26.988281 27.902344 -26.988281 28.113281 -27.09375 C 28.324219 -27.164062 28.429688 -27.339844 28.429688 -27.585938 L 28.429688 -35.398438 C 28.429688 -35.609375 28.324219 -35.75 28.113281 -35.855469 C 27.902344 -35.960938 27.726562 -35.960938 27.550781 -35.855469 Z M 27.550781 -35.855469 "/></g></g></g><g fill="#fffaef" fill-opacity="1"><g transform="translate(149.014887, 143.618032)"><g><path d="M 25.617188 -35.222656 C 25.015625 -34.65625 24.3125 -34.410156 23.539062 -34.410156 L 4.785156 -34.410156 C 4.539062 -34.410156 4.363281 -34.304688 4.292969 -34.09375 C 4.1875 -33.882812 4.1875 -33.707031 4.328125 -33.53125 L 4.433594 -33.425781 C 4.996094 -32.792969 5.277344 -32.054688 5.277344 -31.210938 L 5.277344 -2.640625 C 5.277344 -2.214844 5.207031 -1.828125 5.066406 -1.441406 C 4.925781 -1.054688 4.714844 -0.703125 4.433594 -0.421875 L 4.328125 -0.316406 C 4.1875 -0.105469 4.1875 0.0703125 4.292969 0.28125 C 4.363281 0.492188 4.539062 0.5625 4.785156 0.5625 L 23.539062 0.5625 C 24.3125 0.5625 25.015625 0.84375 25.617188 1.371094 C 25.792969 1.546875 26.003906 1.582031 26.214844 1.476562 C 26.425781 1.40625 26.566406 1.230469 26.566406 0.949219 L 26.566406 -6.894531 C 26.566406 -7.109375 26.460938 -7.285156 26.25 -7.390625 C 26.039062 -7.460938 25.828125 -7.425781 25.6875 -7.285156 C 25.050781 -6.683594 24.3125 -6.402344 23.46875 -6.402344 L 13.125 -6.402344 C 12.878906 -6.402344 12.667969 -6.472656 12.492188 -6.648438 C 12.316406 -6.789062 12.246094 -7.003906 12.246094 -7.285156 L 12.246094 -12.5625 C 12.246094 -12.808594 12.316406 -13.019531 12.492188 -13.195312 C 12.667969 -13.335938 12.878906 -13.441406 13.125 -13.441406 L 16.21875 -13.441406 C 17.066406 -13.441406 17.804688 -13.125 18.4375 -12.5625 C 18.613281 -12.421875 18.789062 -12.421875 19 -12.527344 C 19.210938 -12.632812 19.316406 -12.808594 19.316406 -13.019531 L 19.316406 -20.828125 C 19.316406 -21.042969 19.210938 -21.183594 19 -21.289062 C 18.789062 -21.394531 18.613281 -21.394531 18.4375 -21.289062 C 17.804688 -20.6875 17.066406 -20.40625 16.21875 -20.40625 L 13.125 -20.40625 C 12.878906 -20.40625 12.667969 -20.476562 12.492188 -20.652344 C 12.316406 -20.792969 12.246094 -21.007812 12.246094 -21.289062 L 12.246094 -26.566406 C 12.246094 -26.8125 12.316406 -27.023438 12.492188 -27.199219 C 12.667969 -27.339844 12.878906 -27.445312 13.125 -27.445312 L 23.46875 -27.445312 C 24.3125 -27.445312 25.050781 -27.128906 25.6875 -26.566406 C 25.828125 -26.390625 26.039062 -26.355469 26.25 -26.460938 C 26.460938 -26.53125 26.566406 -26.707031 26.566406 -26.953125 L 26.566406 -34.832031 C 26.566406 -35.046875 26.425781 -35.222656 26.214844 -35.328125 C 26.003906 -35.398438 25.792969 -35.363281 25.617188 -35.222656 Z M 25.617188 -35.222656 "/></g></g></g><g fill="#fffaef" fill-opacity="1"><g transform="translate(179.80216, 143.618032)"><g><path d="M 28.921875 -26.320312 L 28.746094 -26.53125 C 28.253906 -27.023438 27.9375 -27.585938 27.726562 -28.21875 C 27.09375 -30.1875 25.792969 -31.808594 23.890625 -33.074219 C 22.835938 -33.742188 21.640625 -34.269531 20.300781 -34.621094 C 18.964844 -34.976562 17.59375 -35.152344 16.113281 -35.152344 C 14.636719 -35.152344 13.195312 -34.941406 11.824219 -34.585938 C 10.449219 -34.234375 9.21875 -33.707031 8.128906 -33.039062 C 6.648438 -32.125 5.558594 -31.035156 4.785156 -29.730469 C 4.011719 -28.429688 3.660156 -27.023438 3.660156 -25.472656 C 3.660156 -22.519531 5.03125 -19.984375 7.847656 -17.910156 C 8.832031 -17.136719 9.886719 -16.503906 11.046875 -15.9375 C 12.210938 -15.375 13.40625 -14.8125 14.601562 -14.320312 C 15.304688 -13.96875 16.078125 -13.617188 16.855469 -13.265625 C 17.628906 -12.914062 18.332031 -12.527344 18.964844 -12.175781 C 19.597656 -11.789062 20.125 -11.398438 20.546875 -11.011719 C 20.972656 -10.589844 21.183594 -10.203125 21.183594 -9.816406 C 21.183594 -9.324219 21.007812 -8.867188 20.652344 -8.515625 C 20.300781 -8.164062 19.84375 -7.847656 19.316406 -7.636719 C 18.789062 -7.425781 18.226562 -7.25 17.59375 -7.144531 C 16.960938 -7.003906 16.398438 -6.964844 15.832031 -6.964844 C 15.128906 -6.964844 14.425781 -7.039062 13.652344 -7.214844 C 12.878906 -7.355469 12.210938 -7.636719 11.683594 -8.023438 C 11.539062 -8.128906 11.433594 -8.269531 11.433594 -8.445312 C 11.398438 -8.621094 11.433594 -8.761719 11.574219 -8.902344 L 11.609375 -8.9375 C 11.71875 -9.113281 11.71875 -9.289062 11.648438 -9.5 C 11.539062 -9.710938 11.363281 -9.816406 11.152344 -9.816406 L 3.378906 -9.816406 C 3.132812 -9.816406 2.957031 -9.710938 2.886719 -9.5 C 2.78125 -9.289062 2.78125 -9.113281 2.921875 -8.9375 L 3.0625 -8.796875 C 3.554688 -8.234375 3.871094 -7.636719 4.082031 -7.039062 C 4.714844 -4.996094 5.980469 -3.378906 7.953125 -2.144531 C 9.007812 -1.441406 10.238281 -0.914062 11.574219 -0.5625 C 12.914062 -0.175781 14.355469 0 15.832031 0 C 17.59375 0 19.246094 -0.246094 20.757812 -0.738281 C 22.273438 -1.230469 23.574219 -1.898438 24.664062 -2.78125 C 25.757812 -3.625 26.601562 -4.679688 27.234375 -5.875 C 27.832031 -7.074219 28.148438 -8.375 28.148438 -9.816406 C 28.148438 -11.328125 27.796875 -12.667969 27.128906 -13.792969 C 26.460938 -14.917969 25.617188 -15.902344 24.558594 -16.75 C 23.503906 -17.59375 22.378906 -18.296875 21.113281 -18.929688 C 19.84375 -19.5625 18.613281 -20.125 17.417969 -20.6875 C 16.609375 -21.042969 15.796875 -21.394531 14.988281 -21.78125 C 14.179688 -22.132812 13.441406 -22.519531 12.808594 -22.941406 C 12.175781 -23.328125 11.648438 -23.75 11.222656 -24.171875 C 10.800781 -24.59375 10.625 -25.015625 10.625 -25.472656 C 10.625 -25.863281 10.765625 -26.214844 11.117188 -26.566406 C 11.433594 -26.917969 11.859375 -27.199219 12.386719 -27.445312 C 12.878906 -27.65625 13.476562 -27.832031 14.144531 -27.972656 C 14.777344 -28.113281 15.445312 -28.183594 16.113281 -28.183594 C 16.890625 -28.183594 17.664062 -28.078125 18.367188 -27.9375 C 19.070312 -27.761719 19.632812 -27.515625 20.125 -27.199219 C 20.265625 -27.09375 20.371094 -26.953125 20.371094 -26.777344 C 20.371094 -26.601562 20.335938 -26.460938 20.230469 -26.355469 L 20.230469 -26.320312 C 20.089844 -26.109375 20.089844 -25.933594 20.195312 -25.757812 C 20.265625 -25.542969 20.441406 -25.472656 20.6875 -25.472656 L 28.464844 -25.472656 C 28.675781 -25.472656 28.851562 -25.542969 28.957031 -25.757812 C 29.027344 -25.933594 29.027344 -26.109375 28.921875 -26.320312 Z M 28.921875 -26.320312 "/></g></g></g><g fill="#fffaef" fill-opacity="1"><g transform="translate(211.645006, 143.618032)"><g><path d="M 4.222656 0.527344 L 11.011719 0.527344 L 11.011719 -6.050781 L 4.222656 -6.050781 Z M 4.222656 0.527344 "/></g></g></g></svg>